<?xml version="1.0" encoding="utf-8"?>
<!-- Generator: Adobe Illustrator 19.2.0, SVG Export Plug-In . SVG Version: 6.00 Build 0)  -->
<svg version="1.1" id="Layer_1" xmlns="http://www.w3.org/2000/svg" xmlns:xlink="http://www.w3.org/1999/xlink" x="0px" y="0px"
	 viewBox="0 0 1920 1080" style="enable-background:new 0 0 1920 1080;" xml:space="preserve">
<style type="text/css">
	.st0{fill:#754C24;}
	.st1{fill:#603813;}
	.st2{fill:#845732;}
	.st3{opacity:0.1;}
	.st4{fill:#333333;}
	.st5{fill:#0F0F0F;}
	.st6{fill:#AAAAAA;}
	.st7{stroke:#FFFFFF;stroke-width:18.1901;stroke-miterlimit:10;}
	.st8{fill:#FFFFFF;}
	.st9{fill:#CC333F;}
	.st10{fill:#EAEAEA;}
	.st11{fill:none;stroke:#FFFFFF;stroke-width:4.6001;stroke-linecap:round;stroke-miterlimit:10;}
	.st12{fill:#B3E2E5;}
	.st13{fill:#EB6841;}
	.st14{fill:#0076AE;}
	.st15{fill:#009DCB;}
	.st16{fill:#0B4A70;}
	.st17{fill:#F8DF88;}
	.st18{fill:#E6E6E6;}
	.st19{fill:none;stroke:#E6E6E6;stroke-width:7;stroke-miterlimit:10;}
	.st20{fill:none;stroke:#FFFFFF;stroke-width:3.4854;stroke-linecap:round;stroke-miterlimit:10;}
	.st21{fill:none;stroke:#FFFFFF;stroke-width:4.0203;stroke-miterlimit:10;}
	.st22{fill:#066489;}
	.st23{fill:#0A4C60;}
	.st24{fill:#B7DD5B;}
	.st25{fill:none;stroke:#CC333F;stroke-width:5;stroke-miterlimit:10;stroke-dasharray:15,15;}
	.st26{fill:#EFBEA3;}
	.st27{fill:#FFD6B8;}
	.st28{fill:#C1272D;}
	.st29{fill:#A81E29;}
	.st30{fill:#998675;}
	.st31{fill:#C7B299;}
	.st32{fill:#897463;}
</style>
<g>
	<rect x="2.8" y="-0.5" class="st0" width="1920" height="1081"/>
	<g>
		<rect x="2.8" y="148.3" class="st1" width="1920" height="11"/>
		<rect x="2.8" y="160.3" class="st2" width="1920" height="11"/>
	</g>
	<g>
		<rect x="2.8" y="335.8" class="st1" width="1920" height="11"/>
		<rect x="2.8" y="347.8" class="st2" width="1920" height="11"/>
	</g>
	<g>
		<rect x="2.8" y="523.4" class="st1" width="1920" height="11"/>
		<rect x="2.8" y="535.3" class="st2" width="1920" height="11"/>
	</g>
	<g>
		<rect x="2.8" y="710.9" class="st1" width="1920" height="11"/>
		<rect x="2.8" y="722.9" class="st2" width="1920" height="11"/>
	</g>
	<g>
		<rect x="2.8" y="898.4" class="st1" width="1920" height="11"/>
		<rect x="2.8" y="910.4" class="st2" width="1920" height="11"/>
	</g>
</g>
<g>
	<path d="M1980.6,584.7H1931v-25c0-4.3,3.5-7.8,7.8-7.8h34c4.3,0,7.8,3.5,7.8,7.8V584.7z"/>
	<path class="st3" d="M1990.5,812.5h-343c-8.6,0-15.6-7-15.6-15.6V607c0-8.6,7-15.6,15.6-15.6h343c8.6,0,15.6,7,15.6,15.6v189.9
		C2006.1,805.5,1999.1,812.5,1990.5,812.5z"/>
	<path class="st4" d="M1990.5,790.5h-343c-8.6,0-15.6-7-15.6-15.6V585c0-8.6,7-15.6,15.6-15.6h343c8.6,0,15.6,7,15.6,15.6v189.9
		C2006.1,783.5,1999.1,790.5,1990.5,790.5z"/>
	<path class="st5" d="M1990.5,764.5h-343c-8.6,0-15.6-7-15.6-15.6v26c0,8.6,7,15.6,15.6,15.6h343c8.6,0,15.6-7,15.6-15.6v-26
		C2006.1,757.5,1999.1,764.5,1990.5,764.5z"/>
	<rect x="1631.9" y="621.6" class="st6" width="374.2" height="123.3"/>
	<circle class="st7" cx="1819" cy="680.5" r="67.3"/>
	<circle class="st4" cx="1819" cy="680.5" r="38.4"/>
	<circle class="st8" cx="1795" cy="656.5" r="14.4"/>
	<circle class="st9" cx="1669" cy="595.8" r="11.2"/>
	<rect x="1938.3" y="587.4" class="st6" width="42.3" height="16.8"/>
</g>
<g>
	<polygon class="st3" points="1741.2,251.7 1742.5,131.8 1410.5,128.3 1408.2,343.6 1497.2,344.5 1495.9,464.4 1827.9,468 
		1830.2,252.7 	"/>
	
		<rect x="1409.4" y="104" transform="matrix(0.9999 1.072192e-02 -1.072192e-02 0.9999 2.3603 -16.8785)" class="st10" width="332" height="215.3"/>
	<line class="st11" x1="1607.7" y1="120.9" x2="1605.7" y2="303.1"/>
	
		<rect x="1673.5" y="137.7" transform="matrix(0.9999 1.072192e-02 -1.072192e-02 0.9999 1.8181 -18.1779)" class="st8" width="45.6" height="45.6"/>
	<line class="st11" x1="1445.6" y1="210" x2="1575.3" y2="211.4"/>
	<line class="st11" x1="1445.4" y1="228.6" x2="1575.1" y2="230"/>
	<line class="st11" x1="1445.2" y1="248.6" x2="1574.9" y2="250"/>
	<line class="st11" x1="1444.9" y1="268.5" x2="1534.1" y2="269.4"/>
	<line class="st11" x1="1519.2" y1="160.9" x2="1575.9" y2="161.5"/>
	<line class="st11" x1="1639.6" y1="215.3" x2="1718.5" y2="216.1"/>
	<line class="st11" x1="1639.4" y1="233.7" x2="1718.3" y2="234.5"/>
	<line class="st11" x1="1639.2" y1="252.1" x2="1718.1" y2="253"/>
	<line class="st11" x1="1639" y1="270.6" x2="1717.9" y2="271.4"/>
	<g>
		
			<rect x="1562.3" y="173.5" transform="matrix(1.072463e-02 -0.9999 0.9999 1.072463e-02 1312.6725 1991.931)" class="st12" width="201.5" height="318.2"/>
		<path class="st8" d="M1511.9,237.1l304.3,3.3l-2,187.7l-304.3-3.3L1511.9,237.1 M1498.2,223.1l-2.3,215.3l331.9,3.6l2.3-215.3
			L1498.2,223.1L1498.2,223.1z"/>
	</g>
	
		<ellipse transform="matrix(1.072192e-02 -0.9999 0.9999 1.072192e-02 1450.0909 2053.436)" class="st13" cx="1762.8" cy="293.9" rx="31.4" ry="31.4"/>
	<polygon class="st14" points="1784.3,388.1 1584.6,386 1685.5,287.2 	"/>
	<polygon class="st15" points="1727.4,387.5 1527.7,385.4 1628.6,286.6 	"/>
	<path class="st16" d="M1510.8,322.5l90,1c8.6,0.1,15.6,7.2,15.5,15.8v0c-0.1,8.6-7.2,15.6-15.8,15.5l-0.5,0
		c-8.4-0.1-15.3,6.6-15.4,15v0c-0.1,8.4,6.6,15.3,15,15.4l214.9,2.3L1814,428l-304.4-3.3L1510.8,322.5z"/>
</g>
<g>
	<g class="st3">
		<path d="M157.8,680.4c0-3.4,2.7-6.1,6.1-6.1h15.7c1.8,0,3.2-1.4,3.2-3.2v-3.1h12.8v13.7h18.2c12.5,0,22.6-10.1,22.6-22.6v-22.3
			c0-12.5-10.1-22.6-22.6-22.6h-18.2v13.7h-12.8V625c0-1.8-1.4-3.2-3.2-3.2h-21.8c-12.3,0-22.3,10-22.3,22.3v69.6h22.3V680.4z"/>
		<path d="M311.9,728.6h-18.2v13.7h-12.8v-3.1c0-1.8-1.4-3.2-3.2-3.2h-21.8h0c-12.3,0-22.3,10-22.3,22.3v69.6h8.3v176.4
			c-9.9-20.2-27.9-37.5-45-48.9l-23.9-15.9c-14.8-9.8-23.6-26.3-23.6-44V713.7h-7v181.7c0,20.1,10,38.7,26.7,49.9l23.9,15.9
			c21.7,14.4,44.7,38.6,48.9,65.4v6h0.6c0,0.8,0.1,1.7,0.1,2.5v177h7v-177c0-3-0.2-6-0.7-9V827.9h7v-33.3c0-3.4,2.7-6.1,6.1-6.1
			h15.7c1.8,0,3.2-1.4,3.2-3.2v-3.1h12.8V796h18.2c12.5,0,22.6-10.1,22.6-22.6v-22.3C334.4,738.7,324.3,728.6,311.9,728.6z"/>
	</g>
	<path class="st4" d="M213.8,661.8h-18.2v-67.4h18.2c12.5,0,22.6,10.1,22.6,22.6v22.3C236.4,651.7,226.3,661.8,213.8,661.8z"/>
	<rect x="182.8" y="608.1" class="st17" width="12.8" height="40"/>
	<path class="st18" d="M157.8,601.8L157.8,601.8c-12.3,0-22.3,10-22.3,22.3v69.6h22.3v-33.3c0-3.4,2.7-6.1,6.1-6.1h15.7
		c1.8,0,3.2-1.4,3.2-3.2V605c0-1.8-1.4-3.2-3.2-3.2H157.8z"/>
	<path class="st19" d="M145.8,693.7v181.7c0,18.9,9.4,36.5,25.2,47l23.9,15.9c25.7,17.1,51.1,45.9,51.1,76.8v177"/>
	<line class="st19" x1="245.3" y1="807.9" x2="245.3" y2="1012.6"/>
	<path class="st4" d="M311.9,775.9h-18.2v-67.4h18.2c12.5,0,22.6,10.1,22.6,22.6v22.3C334.4,765.8,324.3,775.9,311.9,775.9z"/>
	<rect x="280.9" y="722.2" class="st17" width="12.8" height="40"/>
	<path class="st18" d="M255.9,716L255.9,716c-12.3,0-22.3,10-22.3,22.3v69.6h22.3v-33.3c0-3.4,2.7-6.1,6.1-6.1h15.7
		c1.8,0,3.2-1.4,3.2-3.2v-46.1c0-1.8-1.4-3.2-3.2-3.2H255.9z"/>
</g>
<g>
	<g>
		<circle class="st4" cx="246" cy="412.4" r="90.4"/>
	</g>
	<g>
		<path class="st5" d="M246,479.2c-48.9,0-89.5-35.1-98.1-81.5c-1.1,6-1.7,12.1-1.7,18.4c0,55.1,44.7,99.8,99.8,99.8
			s99.8-44.7,99.8-99.8c0-6.3-0.6-12.4-1.7-18.4C335.5,444.1,294.9,479.2,246,479.2z"/>
	</g>
	<rect x="234.1" y="289.5" class="st10" width="23.8" height="17.9"/>
	<g class="st3">
		<circle cx="246" cy="440.4" r="109"/>
	</g>
	<g>
		<path class="st8" d="M246,322.6c49.5,0,89.8,40.3,89.8,89.8s-40.3,89.8-89.8,89.8s-89.8-40.3-89.8-89.8S196.5,322.6,246,322.6
			 M246,303.4c-60.2,0-109,48.8-109,109c0,60.2,48.8,109,109,109s109-48.8,109-109C355,352.2,306.2,303.4,246,303.4L246,303.4z"/>
	</g>
	<path class="st8" d="M258.6,295.7h-25.2c-2.9,0-5.2-2.3-5.2-5.2v-8.2c0-2.9,2.3-5.2,5.2-5.2h25.2c2.9,0,5.2,2.3,5.2,5.2v8.2
		C263.8,293.3,261.5,295.7,258.6,295.7z"/>
	<polygon class="st9" points="312.9,366.5 252.2,419.9 239.8,401.3 	"/>
	<polygon class="st10" points="179.1,454.7 252.2,419.9 239.8,401.3 	"/>
	<line class="st20" x1="246" y1="337.5" x2="246" y2="356.2"/>
	<line class="st20" x1="246" y1="468.2" x2="246" y2="486.9"/>
	<line class="st20" x1="320.7" y1="412.2" x2="302" y2="412.2"/>
	<line class="st20" x1="190" y1="412.2" x2="171.3" y2="412.2"/>
	<g>
		<path d="M246,420.9c-5.7,0-10.3-4.6-10.3-10.3s4.6-10.3,10.3-10.3s10.3,4.6,10.3,10.3S251.7,420.9,246,420.9z"/>
		<path class="st6" d="M246,403c4.2,0,7.7,3.4,7.7,7.7s-3.4,7.7-7.7,7.7s-7.7-3.4-7.7-7.7S241.8,403,246,403 M246,397.8
			c-7.1,0-12.9,5.8-12.9,12.9s5.8,12.9,12.9,12.9c7.1,0,12.9-5.8,12.9-12.9S253.1,397.8,246,397.8L246,397.8z"/>
	</g>
</g>
<g>
	<path class="st3" d="M641.3,399.7H435.8c-6.7,0-12.1-5.4-12.1-12.1V122.4c0-6.7,5.4-12.1,12.1-12.1h205.5c6.7,0,12.1,5.4,12.1,12.1
		v265.2C653.4,394.3,648,399.7,641.3,399.7z"/>
	<path class="st16" d="M641.3,379.7H435.8c-6.7,0-12.1-5.4-12.1-12.1V102.4c0-6.7,5.4-12.1,12.1-12.1h205.5
		c6.7,0,12.1,5.4,12.1,12.1v265.2C653.4,374.3,648,379.7,641.3,379.7z"/>
	<path class="st8" d="M641.3,373.6H435.8c-6.7,0-12.1-5.4-12.1-12.1V96.4c0-6.7,5.4-12.1,12.1-12.1h205.5c6.7,0,12.1,5.4,12.1,12.1
		v265.2C653.4,368.2,648,373.6,641.3,373.6z"/>
	<rect x="423.7" y="331.4" class="st16" width="10.1" height="48.2"/>
	<g>
		<path class="st10" d="M708.2,159.4L781,414.9c1.8,6.4,8.5,10.1,14.9,8.3l108.2-30.8c6.4-1.8,10.1-8.5,8.3-14.9L839.6,122
			c-1.8-6.4-8.5-10.1-14.9-8.3l-108.2,30.8C710.1,146.3,706.3,153,708.2,159.4z"/>
		<path class="st8" d="M839.8,122.8l26.8,94l-131.4,37.4l-26.8-94c-1.8-6.4,2.5-14.2,8.9-16l108.2-30.8
			C832,111.6,838,116.4,839.8,122.8z"/>
		
			<rect x="738.7" y="317.3" transform="matrix(-0.274 -0.9617 0.9617 -0.274 721.0437 1192.7955)" class="st8" width="144.1" height="13.9"/>
		
			<rect x="835.7" y="352.2" transform="matrix(-0.274 -0.9617 0.9617 -0.274 744.0004 1287.175)" class="st8" width="44.2" height="21.1"/>
		
			<rect x="794" y="275.2" transform="matrix(-0.274 -0.9617 0.9617 -0.274 790.1288 1167.911)" class="st8" width="83.8" height="21.1"/>
		
			<rect x="712.6" y="324.7" transform="matrix(-0.274 -0.9617 0.9617 -0.274 680.6592 1177.1758)" class="st8" width="144.1" height="13.9"/>
		
			<rect x="707" y="186.9" transform="matrix(-0.274 -0.9617 0.9617 -0.274 763.2073 963.7495)" class="st10" width="76.7" height="13.9"/>
		<path class="st15" d="M839.6,122l72.8,255.4c1.8,6.4-2,12.8-8.4,14.6l-7.7,2.2l-79.3-278.4l7.7-2.2
			C831.1,111.9,837.7,115.6,839.6,122z"/>
		
			<rect x="761.3" y="156" transform="matrix(-0.274 -0.9617 0.9617 -0.274 847.1539 996.218)" class="st10" width="76.7" height="44.6"/>
	</g>
	<path class="st16" d="M640.9,365.6H423.7V76.3h217.9c6.3,0,11.4,5.1,11.4,11.4v265.7C653.1,360.1,647.6,365.6,640.9,365.6z"/>
	<g>
		<ellipse class="st21" cx="538.5" cy="204.3" rx="71.2" ry="71.1"/>
		<ellipse class="st21" cx="538.5" cy="204.3" rx="38.1" ry="71.1"/>
		<line class="st21" x1="538.5" y1="133.2" x2="538.5" y2="275.4"/>
		<line class="st21" x1="478.1" y1="166.7" x2="598.8" y2="166.7"/>
		<line class="st21" x1="468" y1="206.9" x2="608.9" y2="206.9"/>
		<line class="st21" x1="480.1" y1="245" x2="594.8" y2="245"/>
	</g>
	<rect x="467.2" y="299.2" class="st15" width="142.4" height="26.6"/>
</g>
<g>
	<polygon class="st3" points="1184,286.5 815.6,335.4 476.7,323.7 507.4,955.4 815.6,966.3 1188.5,953.1 1490,964.2 1537.1,340.3 	
		"/>
	<polygon class="st8" points="815.6,966.3 462.6,907.5 462.6,248.4 815.6,307.2 	"/>
	<polygon class="st8" points="1184,917.3 815.6,966.3 815.6,307.2 1184,258.2 	"/>
	<polygon class="st8" points="1537.1,971.2 1184,917.3 1184,258.2 1537.1,312.1 	"/>
	<polygon class="st14" points="811.1,935.2 505.5,882.9 505.5,286.2 811.1,338.6 	"/>
	<polygon class="st22" points="1188.5,882.9 811.1,935.2 811.1,338.6 1188.5,286.2 	"/>
	<polygon class="st23" points="1494.1,935.2 1188.5,882.9 1188.5,286.2 1494.1,338.6 	"/>
	<g>
		<path class="st24" d="M683.3,707.8c0.4,0.7,0.3,1.6,0.2,2.4c-0.4,3.2-0.8,6.4-1.2,9.7c-0.2,1.3-0.3,2.7,0.6,3.6
			c1.2,1.3,3.5,0.6,4.9,1.6c0.6,0.4,1,1.1,1.3,1.7c1.5,2.8,2.7,5.8,3.4,8.8c0.4,1.6,0.7,3.3,1.6,4.6c1.1,1.6,2.9,2.5,4.3,3.9
			s2.3,3.6,1.2,5.2c-3.4,1.1-7.5,2.1-10.3-0.2c-0.8-0.7-1.4-1.6-2.2-2.4c-3.1-3.1-8.1-3-11.9-5.1c-5.8-3.3-7.4-10.8-8.3-17.4
			c-1.1-7.3-4.6-22.9,3.7-27.2c2.6-1.3,5.1-1.6,6.6,1c1,1.7-0.3,4.3,1,6.2C679.5,706.1,682.3,706,683.3,707.8z"/>
		<path class="st24" d="M747.9,703.1c-7.7,1.4-14.8,5.7-19.5,11.9c-1,1.3-1.9,2.7-1.9,4.3c-0.1,3.4,3.6,5.9,4,9.3
			c0.6,5.1-6.1,7.7-8.9,12c-2,3.1-2.1,7.4-4.8,9.9c-5.4,5-15.9,4.4-14.6,14.7c0.5,4.2,3.1,6.3,6.3,8.7c3.3,2.6,4.5,5.1,7.4,7.8
			c7.2,6.8,17.1,9,25.8,13.3c4.4,2.2,7.3,4.3,9.9,8.4c2.6,4,3.8,8.6,8.6,10.6c4.9,2,11.3,0,15.1,3.6c4.8,4.6,3.2,10.1,10.1,12.6
			c6.5,2.4,11.8,4.7,17.5,9c5,3.7,9.5,8.2,14.2,12.2c6.8,5.8,14.4,9,21.4,14.4c0.7-1.1-0.1-2.5-1-3.5
			c-10.1-12.1-26.6-24.1-26.6-41.9c-1.9-8.9-1.2-16.6,7.4-20.4c2.9-1.3,5.7-0.8,6.8-4.6c1.4-5-3.9-6.1-6.2-9.5
			c-1-1.4-1.3-3.1-1.4-4.8c-0.5-4.6-0.2-9.3,0.9-13.8c0.5-2,1.1-4,0.8-6c-0.6-3.8-4.2-6.4-5.2-10.1c-1.2-4.4,1.7-8.9,5.1-12.1
			c3.6-3.3,6.3-8.1,10-11.1c2.7-2.1,6.2-2.5,8.7-5.1c2.8-2.9,0.8-5.9,2.4-8.8c1.5-2.7,4.3-3.1,6.9-4.1c2.6-1,5.1-4.5,2.9-6.3
			c-1-0.9-2.5-0.7-3.8-1c-2.8-0.7-4.8-3.9-4.1-6.7c1.1-4.3,5.6-2.4,7.1-4.8c1.6-2.6-0.6-9.4-2.1-11.7c-1.9-3.1-6-5-9.3-3.4
			c-0.9,0.5-1.7,1.1-2.7,1.5c-4,1.5-7.4-2.9-11.3-4.7c-1.8-0.8-3.8-1-5.8-1.2c-6.1-0.6-12.5-1-17.9,1.9c-2.6,1.4-4.9,3.6-6.3,6.2
			c-1.1,2-1.9,4.4-3.8,5.7c-1.1,0.8-2.5,1-3.8,1.3c-5.4,1.1-10.8,2.1-16.2,3.2c-1,0.2-2,0.4-2.6,1.2c-0.6,0.9-0.5,2-0.6,3.1
			c-0.4,4.6-6.6,7.5-10.4,4.8c-0.7-0.5-1.4-1.1-2.2-1.1c-0.6,0-1.1,0.5-1.6,0.9C751.5,699.8,749.2,702,747.9,703.1z"/>
		<path class="st24" d="M1138.2,725.4c-2.5,5.2-4.9,10.4-7.4,15.7c1.8,0.7,3.7-0.6,4.7-2.2c1-1.6,1.3-3.5,2.2-5.2
			c0.9-1.7,2.7-3.1,4.5-2.6c0.5,0.1,0.9,0.4,1.4,0.5c1.7,0.4,3.2-1.3,3.7-3c0.4-1.7,0.2-3.5,0.6-5.2c0.8-3.1,15.4-18.8,3.1-17.2
			c-2.9,0.4-8.7,4.6-10.4,6.8C1136.8,717.3,1140.3,720.9,1138.2,725.4z"/>
		<path class="st24" d="M919.7,486c-4.5,0.3-7.5,6-5.3,9.9c0.9,1.6,2.5,2.8,2.9,4.6c0.8,3.1-2.3,6.7-0.6,9.4
			c1.8,2.7,6.5,0.6,7.4-2.5c0.9-3.2-0.2-6.5-0.3-9.8c2.3,1.3,5.1-2,4.1-4.5c-1-2.5-3.9-3.6-6.5-3.8c0.8-0.5,1.6-1.1,2.4-1.6"/>
		<path class="st24" d="M942.2,485.9c-1.7,0.3-2.2,2.7-1.6,4.4c0.6,1.7,1.9,3.1,2.2,4.8c0.4,2.1-0.5,4.7,0.9,6.4
			c1.2,1.4,3.6,1.2,5,0c1.4-1.2,2.1-3,2.6-4.8c0.9-3.6,1.2-7.3,0.8-11c-0.2-1.5-0.4-3.4,0.8-4.4c0.6-0.6,1.4-0.7,2.1-1.2
			c1.7-1.1,1.9-3.7,0.9-5.4c-1-1.7-2.9-2.8-4.8-3.4c-1.7-0.6-3.7-0.9-5.4-0.1c-1.7,0.8-2.8,3-1.8,4.5c-6.7,2.7-14.2-6.8-20.6-3.5
			c-1.8,0.9-3.9,2.7-5.5,1.4c-1.4,1.2-0.4,3.9,1.4,4.5c1.8,0.6,3.8-0.1,5.5-1c1.7-0.9,3.4-1.9,5.3-1.8c-0.2,2.1-0.3,4.3,0.5,6.3
			c0.8,2,3,3.5,5,2.9c0.2,3.8,3.7,7,7.5,6.9"/>
		<path class="st24" d="M1315.2,715.8c-2.2,1.1-4.3,2.5-6.2,4c-0.8,0.7-1.7,1.4-2,2.4c-0.9,2.4,1.1,6.1-1.2,7.3
			c-1.4,0.7-3-0.3-4.6-0.3c-2.3,0.1-3.8,2.6-3.8,4.8s0.8,4.4,1.2,6.7c0.9,5.6-6.5,22.6,4.5,23.9c7.4,0.8,7.2-11.6,8.2-16.5
			c2.7,1.3,4.8,3.9,5.4,6.9c1.4-0.7,1.7-2.5,2.2-4.1c0.4-1.5,1.5-3.3,3-3.1c2.9,0.3,2.7,6,5.5,6c0.6,0,1.2-0.3,1.8-0.7
			c1-0.6,2.1-1.4,2.2-2.6c0.2-1.2-1.4-2.4-2.2-1.5c3.8-1,7.8-1.6,11.8-1.8c0.5,0,1.1,0,1.6,0.2c2,1.1,0.2,4.7,1.8,6.4
			c2.2,2.3,6.7-2.3,9,0c1.4,1.5,0.2,4.5,1.9,5.7c3,2.1,5.9-0.4,8.6,3.5c1.7,2.5-0.6,5.2,2.5,7.5c4-6.3,13.6-1.8,19.4-4.4
			c4.1-1.9,6.1-6.7,9.7-9.3c5.2-3.8,13.1-2.8,17.5-7.6c4.6-5,2.3-13.3-1.7-18.8c-4-5.5-9.5-10.3-11.3-16.9c-1-3.9-0.6-8-1.3-12
			c-0.7-4-3-8.2-6.9-9c-1.7,7.2-5,14-9.6,19.7c3.1-3.8-6.8-13-9.7-13.9c4.4,1.3,0.5-5.8-3-6.9c-6.1-2-8.8,2.1-14.5,2.6
			c-2.9,0.2-5.8,0-8.6,1s-5.1,3.7-4.4,6.5c0.2,1,0.8,1.9,0.8,2.9c0,1.1-0.7,2-1.5,2.7c-4.1,3.8-10.2,4-15.7,5.1
			C1321.9,712.9,1318.4,714.1,1315.2,715.8z"/>
		<path class="st24" d="M1303.5,641.2c-1.5-1.1-2.8-2.2-4.4-2.5c-1.1,2.4,0.5,4,1.5,6.3c0.9,2.2,1.8,4.6,3.5,6.3
			c1.7,1.7,4.5,2.6,6.6,1.4c0.8-0.5,1.4-1.2,2.2-1.5c1.7-0.7,3.6,0.5,4.9,1.8c1.3,1.3,2.6,2.8,4.4,3.2c2.6,0.5,4.9-1.6,6.6-3.6
			c0.5-0.6,1-1.1,1.2-1.8c0.5-1.5-0.4-3.1-0.4-4.7c0-4.2,5.9-7.1,4.7-11.1c-0.4-1.2-1.5-2.4-1.1-3.6c0.2-0.7,0.8-1.1,1.4-1.5
			c2.3-1.6,4.5-4,4.1-6.7c-0.4-2.8-3.6-5.2-2.7-7.9c-3.6-2.1-8.1-0.6-12,1c-1.6,0.7-3.3,1.5-4.1,3.1c-0.6,1.2-0.6,2.9-1.9,3.5
			c-1.3,0.6-2.8-0.5-4.2-0.2c-1.8,0.4-2.1,2.9-1.6,4.7c0.5,1.8,1.5,3.6,0.9,5.4c-0.8,2.3-3.8,2.9-6.2,3.1c-0.5,1.1-0.1,2.3,0,3.4
			c0.1,1.2-0.4,2.6-1.6,2.7C1304.6,642,1304.1,641.6,1303.5,641.2z"/>
		<path class="st24" d="M1332.4,662.6c-1.2,0.6-1.8,1.9-2,3.2c-0.8,5,3.1,9.3,6.8,12.8c2.7-0.2,2.4-4.4,0.7-6.5
			c-1.7-2.1-4.2-4.5-3.1-7c0.8-1.8,3.4-2.9,3-4.8c-1.7-1.3-3.5-2.6-5.2-3.9"/>
		<path class="st24" d="M1280.3,676.7c1.1,3.2,5,6.1,7.7,4.1c1.3-1.7,1.9-3.9,1.8-6c1.5-1.1,3.7-0.3,4.9,1c1.3,1.3,2.1,3.1,3.3,4.4
			c4.3,4.5,11.7,2.6,17.5,0.4c-0.6-2.7-3.6-4.2-6.4-4.6c-2.8-0.4-5.7-0.1-8.3-1.2c-4-1.6-6.3-6.7-4.9-10.8
			c-11.5,8.8-15.7-17.5-23-12C1269.3,654.7,1278.7,671.8,1280.3,676.7z"/>
		<path class="st24" d="M1381.5,685c1.5,1.7,4.3,0.4,5.9-1.2c1.5-1.6,3.1-3.8,5.4-3.7c1.4,0,2.5,0.9,3.7,1.7
			c5.1,3.3,11.7,4.2,17.6,2.6c-4.7-7-10.2-14.6-18.5-16.5c-4-0.9-8.6-0.4-12-3c-4.4-3.3-20.9-13.3-18.5,0.4
			c-0.2-0.9,8.4,5.1,9.1,5.9C1377.2,674.8,1377.8,680.9,1381.5,685z"/>
		<path class="st24" d="M1422.3,676.8c-1-2.5-4.9-3.2-6.7-1.2c-0.8,2.7,2.5,4.6,5.2,5.4s6,2.4,5.7,5.1c2.1-1,3-3.9,2-6
			c-1.1-2.1-4-3-6-1.9"/>
		<path class="st24" d="M1378.4,773.4c-5.8,0.8-11.1,4.6-13.7,9.8c1.9,0.8,4.3,0.5,5.9-0.9c1.1,0.8,2.3,1.5,3.4,2.3
			c1-3.6,1.5-7.4,1.5-11.1"/>
		<path class="st24" d="M1429,799.5c-3,3.2-5,7.6-4.3,11.9c-1.4-0.7-3.3,0.7-3.1,2.2c0.6,3.8,17.3-12.4,17.5-12.6
			c5.6-3.8,19.9-4.2,16.4-13.7c0.9-0.8,2.1-1.3,2.9-2.1C1449.1,783.9,1435.3,792.9,1429,799.5z"/>
		<g>
			<path class="st24" d="M1302.5,504.3l7.7-3.6c-2,0.4-3.9,1-5.7,1.9C1303.7,503.1,1303.1,503.7,1302.5,504.3z"/>
			<path class="st24" d="M1283.5,612c-0.1,1-0.2,1.9-0.2,2.9c1.7,0.7,3.6,0.7,5.5,1.1C1287.1,614.4,1285.4,613,1283.5,612z"/>
			<path class="st24" d="M1292.7,621.3c1.4-2-1-4.6-3.3-5.2c-0.2-0.1-0.5-0.1-0.7-0.1C1290.3,617.5,1291.6,619.3,1292.7,621.3z"/>
			<path class="st24" d="M1385.4,417.7c-3.2-1-6.6-0.4-10,0c-20.3,2.4-35.7-7.2-54.8-8.4c-13.6-0.8-25.1,7.2-38.9-0.2
				c-2.3-1.2-4.4-2.8-6.8-3.4c-5.2-1.4-10.7,1.5-16,0.4c-5-1-8.6-4.6-13.8-4.1c-6.3,0.6-5.8,3.8-8.6,7.8c-0.7,1-2.3,0.2-3.2-0.7
				c-2.9-2.8-5.5-5.8-8-8.9c-2.2,0.1-4.5,0.1-6.7,0.2c-9.6,0.2-19.2,0.5-28.8,0.7c-1.4,0-2.8,0.1-4,0.8c-2.8,1.6-3.9,6.5-7.1,6.1
				c-0.8-0.1-1.6-0.6-2.4-0.9c-4.6-2-9.6,1-14,3.3c-4.8,2.4-9.2,2.5-13.5-0.7c-2.6-1.9-3.8-6.5-7.6-6.7c-5.3-0.2-8.9,7.8-14.3,8.9
				c-2.4,0.5-5.6,1.1-5.7,3.5c0.7-0.1,1.1,0.8,0.9,1.5c-0.2,0.6-0.9,1-1.5,1.4c-0.9,0.5-1.8,1-2.7,1.5c-0.6,0.4-1.5,0.7-2.1,0.4
				c-0.6-0.3-0.7-1-1-1.6c-1.4-2.8-5.8-1.7-7.8,0.6c-2,2.4-3,5.6-5.5,7.4c-1.2-2.6-4.7-3.6-7.3-2.6c-2.6,1.1-4.3,3.9-4.5,6.7
				c-0.4-2.7-4.1-3.8-6.7-2.9c-2.6,0.9-4.6,3-7,4.4s-5.7,2.1-7.7,0.2c-1.8-1.7-1.6-5.6-1.2-7.8c0.9,0,10.4-1.1,10.1-2.4
				c-1-4.2-6.1-6.1-10.4-6.1c-4.3,0-8.8,1-12.9-0.4c-3.4-1.1-6.1-3.8-9.4-5.2c-3.2-1.3-6.1-1.5-8.9-0.9c-0.1-2.4-1.9-4.7-4.1-5.6
				c-3-1.1-6.5-0.1-9.2,1.6c-2,1.3-3.8,3.1-6.1,3.5c-5.4,0.9-8.8-5.5-13.5-8.3c-6.7-4-15.4,0.1-21.2,5.3
				c-12.3,11.1-19.5,11.2-33.8,17.1c-3.7,1.5-24,18.8-13.2,20c1,0.1,2-0.3,2.9-0.5c3.4-0.5,6.5,2.6,7.3,5.9
				c0.8,3.4-0.1,6.9-1.1,10.2c2.9,2.1,7-0.2,8.8-3.2c1.8-3,2.3-6.7,4.1-9.7c1.8-3,6.1-5.2,8.9-3c-0.7,2.1-1.4,4.3-1,6.5
				c0.4,2.2,2.4,4.2,4.5,3.9c5-0.7,4-10.9,9-10.9c2.7,0,4.1,3.2,4.5,5.9c1.2,0.5,2.7,0.2,3.7-0.7c-2.8,3-5,6.6-6.1,10.5
				c-1.5,5.5-3.8,15.6-8,19.6c-1.9,1.8-4.8,2.3-6.3,4.4c-0.7,1-1,2.1-1.3,3.3c-0.9,3.6-1.5,6.5-3.7,9.1c-1.7,2.1-5.2,2.1-4.7,5.8
				c0.3,2.3,2.5,4.4,1.6,6.5c-0.5,1.2-1.9,1.7-2.9,2.5c-2.3,1.8-2.7,5.6-0.9,7.9c-7.1,3-8.8-6-14.1-5.8c-5,0.2-8.1,10.2-12.1,12.6
				c-2.2,1.3-4.8,1.5-6.9,2.9c-2.1,1.4-3.2,4.9-1,6.2c1.7,1.1,3.9-0.2,5.5-1.4c1.6-1.2,3.7-2.5,5.5-1.6c1.2,0.7,1.7,2.2,1.5,3.6
				c-0.2,1.4-1,2.6-1.8,3.7c-2.2,3.1-16.7,12.9-9.6,17.3c2.1,1.3,4.7,0.3,7-0.2c3.5-0.8,7.3-0.4,10.6,1c1.2,4.9-3.1,10.3-8.1,10.3
				c-2.7,0-6.1-1.2-7.9,0.9c-2.1,2.4,0.5,5.8-1.2,8.1c-1.2,1.7-5.1,1.4-6.6,4.1c-1.4,2.4-1.7,5.3-1.6,8.1c0.1,3.9,1.1,8,3.4,11.1
				c2.2,2.9,5.8,4.8,9.4,4.5c-3,3.5-5,8.9-11.4,10.9c-3.3,1-6.8-0.2-10.3,0.2c-8.1,0.8-12.7,12.1-7.5,18.3c0.9,1.1,2,2.1,2.5,3.4
				c0.9,2.5-0.7,5.2-0.9,7.9c-0.3,4.1,2.9,7.6,5.9,10.4c6.1,5.9,13.6,12.2,21.9,10.4c4.6-1,9.4-4.5,13.4-2.1c1.5,0.9,2.5,2.4,4.1,3
				c4.2,1.8,9.7-3.3,13.2-0.4c1.4,1.2,2,3.4,3.7,4.1c1.1,0.4,2.4,0,3.6-0.3c6-1.8,12.5-2.2,18.7-1.1c0.3,1.9,0.7,3.7,1,5.6
				c-5.6-0.5-5.8,9.5-11,11.5c-2.8,1.1-6.1-0.6-8.9,0.6c-2.4,1-3.5,3.8-3.3,6.4c0.2,2.5,1.4,4.9,2.6,7.1c6.5-1.6,14.5-2.9,19.1,2.1
				c6.7,7.3-1.6,13.8-5.9,18.8c-6.6,7.7-11.7,16.7-14.6,26.4c-3,10-4.1,21.5-11.9,28.5c-2.8,2.6-6.4,4.3-8.8,7.4
				c-2.3,3-2.6,8.2,0.7,10.1c1.1,0.6,2.4,0.8,3.5,1.3c5.3,2.3,5.2,9.7,4.3,15.3c1.9,0.6,4.1,0.3,5.7-1c-0.6,7.3,0.5,14.8,3.4,21.6
				c4.5-2.9,10.4-2.5,15.7-3.4c5.3-0.8,11.3-4.1,11.5-9.5c0.1-2.6-1.3-5.2-1.4-7.8c-0.3-8.1,9.7-11.6,16.3-16.2
				c5-3.5,8.7-8.8,10.3-14.6c0.9-3.3,1.2-6.9,2.9-9.8c1.4-2.4,3.6-4.2,5.7-6c10.9-9,21.3-17.2,30-28.3c1.3-2.8,5.7,0,6.1,3.1
				c0.4,3-0.5,6.6,1.7,8.8c3.6,0.3,7.3-1.6,9-4.8c-2.7-1.8-3.2-6.1-1-8.5c2.2-2.4,6.5-2.4,8.6,0.1c0.4-4.4,7.8-3.7,10.5-7.3
				c2.2-2.8,2.2-8.7,5.7-8.1c1.4,0.3,2.3,1.7,3.2,2.8c3.3,4,9.8,4.8,13.9,1.6c1.7-1.3,3-3.1,4.4-4.7c3.6-3.8,8.4-6.2,12.5-9.4
				c17.6-13.4-1.8-23.9-5.3-38c-4.3-17.5,14.3-28.8,14.7-45.9c0.1-2.9-0.4-5.9,0-8.8c0.7-5.3,4.4-9.6,7-14.2c2.6-4.7,4-10.9,0.6-15
				c-9.2,5.5-19.8,7.1-30.2,5.7c-9.8-1.3-19.2-1.4-29.1-2.7c-6-0.8-11.3-4.3-17.1-5.7c-6.1-1.4-12.5-0.5-18.7,0.6
				c-1-1.1-2.5-1.7-3.9-1.6c-0.6-3.2-0.4-6.5,0.3-9.7c1.5-6-8.4-6-11.1-10.7c-2.7-4.5,0.9-9.7,3.3-13.5c-8.8-0.1-7-9.4-1.1-12.4
				c7.7-3.9,15.1,2,23,1.1c2.9-0.3,5.7-1.6,8.3-2.9c2.2-1,5-2,7.8-3.1c0.7,0.1,1.4,0.2,2.1,0.4c8.1,2.5,7.1,14.3,11.3,21.7
				c4.9,8.4,17.4,11.1,20.1,20.4c0.8,2.8,0.8,6.3,3.4,7.8c2,1.1,9.4,0.4,11-1.3c0.8-0.8,1.2-2.1,2.3-2.3c1.4-0.3,2.4,1.4,3.7,1.9
				c1.4,0.6,3.2-0.4,3.5-1.8c0.3-1.4-0.4-3.3,0.9-4c0.4-0.2,0.8-0.2,1.2-0.2c2.1,0,4.3,0.1,6.4,0.1c0.5,0,1.1,0,1.5-0.3
				c0.5-0.4,0.6-1.1,0.8-1.7c0.4-1.4,1.2-2.7,2.3-3.6c0.6-0.5,1.4-1,1.6-1.7c0.5-1.6-1.6-2.8-2.1-4.4c-0.7-2.4,2.1-4.1,2.3-6.3
				c0.2-2.2-1.2-4.9-2.6-6.6c-2.9-3.5-5.4-3-9.6-3.8c-4.8-1-9.3-3.3-12.7-6.8c-1.1-1.2-7.5-9.8-5.5-11.4c4.1-3.4,10.3-0.9,14.4,2.4
				c2.3,1.9,5,5.1,7.8,6.2c3,1.2,6.8,0.4,10.1,0.9c1.1,0.2,2.2,0.4,3.3,0c1.3-0.5,2.3-2,3.7-2c1.6,0,2.5,1.7,3.2,3.1
				c0.7,1.4,2.1,2.9,3.6,2.3c1.2-0.5,1.5-2,2.5-2.7c1-0.7,2.5-0.4,3.1,0.5c0.3,0.5,0.4,1.1,0.7,1.6c1.6,3.2,9.1,1.8,12.2,3.2
				c2.5,1.2,4.6,3.4,4.9,6.1c0.2,2.2-0.7,4.5,0.1,6.6c0.9,2.4,3.6,4.6,4.9,7.2c1.9,4,2.8,8.8,3.2,13.2c0.4,3.6,2,15.8,5.3,17.7
				c2.2,1.2,7.8-0.6,7.8-3.7c3.8-9.4,0.1-15.3,6.5-24.5c1.4-2,3.2-4.3,5.6-4.4c2.5-0.1,4.4,3.7,2.3,4.8c4.6,1.4,8.1-4,10.3-8.3
				c2.2-4.3,7.5-8.8,11.1-5.7c1.6,2.5,2.3,5.5,2.1,8.4c3.3,0.1,6.6,0.1,9.9,0.6c1.6,0.2,2.9,3.8,4.1,9l-1.2,0.6
				c0.7,2.3,1.5,4.5,2.3,6.7c0.1,0,0.1-0.1,0.2-0.1c0.2,1.4,0.4,2.9,0.6,4.4c-0.3-1.3-0.6-2.6-1-3.9c-2.8,3.3,0.6,6.3,0.9,9.9
				c0.2,2.8-1.3,5.5-1.2,8.4c0.3,7.1,6.4,12.4,6.6,19.5c0.1,2.4-0.4,5.4,1.5,6.9c0.4,0.3,0.9,0.5,1.2,0.9c1.6,1.6-0.7,4.2-0.7,6.5
				c0.1,1.8,1.6,3.1,2.7,4.4c2.2,2.5,3.7,5.7,4,9c0.2,1.4,0.2,3.1,1.4,3.9c0.8,0.5,1.9,0.5,2.8,0.6c3.7,0.7,7,5.3,10.3,3.5
				c1.6-0.8,2.3-2.8,1.9-4.6c-0.4-1.7-1.6-3.1-3.1-4.2c-0.8-0.6-1.7-1.1-2.1-1.9c-0.4-0.7-0.4-1.6-0.5-2.5c-0.1-2.8-1.3-5.3-1.2-8
				c0.1-1.7,2.9-6.8,2.7-7.7c-0.5-1.6-2-2.8-3.7-2.9c0.6-2.2,1.2-4.7,0.2-6.7c-0.5-1.1-1.4-1.9-2.3-2.7c-5.7-5.2-6.7-9.2-6.4-16.9
				c0.2-3.6,0.9-12,6.6-9c1.1,0.6,1.7,1.8,2.7,2.5c1.1,0.8,2.5,1,3.8,1c7.7-0.1,14.2-7.7,13.9-15.4c-0.3-7.7-6.3-14.5-13.7-16.7
				l-7.3,3.5c-1.1-1.7-1.4-3.6-0.3-5.1c1.2-1.6,3.2-2.2,4.9-3.2c0.5,0.6,0.8,1.5,0.9,2.3c1.5,0.3,2.6-1.4,3.2-2.8s1.8-3.1,3.2-2.7
				c0.8,0.2,1.3,1,2.1,1.2c1.4,0.4,2.5-1.2,3.7-2c3.2-2,7.9,0.7,11-1.6c1.1-0.8,1.6-2.3,2-3.7c3.3-12.3,1.8-26.4-9.1-34.3
				c0.3-0.5,0.7-1,1.1-1.4l-2.3,1.1c1.3-1.1,2.7-2.1,4.3-2.8c2-1.5,4.6-2.5,7.1-2.5l-1.4,0.7c1.3-0.2,2.6-0.3,3.9-0.3
				c1,0.3,1.9,0.7,2.8,1.4c1.7,1.4,2.7,3.4,3.6,5.4c2.4,5.3,4.8,10.6,7.3,15.9c1.8,3.9,3.7,8,7.2,10.3c3.5,2.4,9.2,2.2,11.3-1.5
				c-2.4-1.5-4.8-3-7.2-4.4c0-7.7,14.9-9.4,13.6-16.9c-2,4-9,3.5-10.4-0.7c-0.2-0.6-0.3-1.3-0.3-1.9c3.9,0.2,8.1-3.4,8.7-7.5
				c0.8-5.3-2.2-10.3-5.5-14.5c-3.3-4.2-7.2-8.1-8.8-13.2c-1-3.3-1-7-2.4-10.2c-3.9-8.4-16-9.6-21.1-17.3
				c10.8-9.3,26.6-12.5,40.1-7.9c-3.3,10,7.4,21.6,17.6,19.1c0.6-5-3.7-9.9-8.7-10.1c0.5-3.8,4.5-6,8.2-7.2
				c3.7-1.1,7.8-2.1,10.1-5.2c2.1-2.8,0.5-8-2.6-8.2c4.5-0.2,8.9-0.4,13.4-0.6C1391.4,421.8,1388.6,418.7,1385.4,417.7z
				 M1007.6,422.1c0.7-0.9,1.8-1.2,2.9-1.5c4.2-1.1,8.4-2.2,12.6-3.3c-4,3.6-7.7,7.7-11.7,10.1c-1.3,0.8-2.7,1.5-4.2,2.1
				c0.1-0.5,0.2-1,0.1-1.5C1007.3,426,1006.4,423.7,1007.6,422.1z M990.7,578.8c1.8,2-1.5,5-4.2,4.6c-2.7-0.5-4.9-2.5-7.7-2.7
				c-4.8-0.3-7,5.5-5.3,9.3c-9.4-0.1-13,2.4-19.9,8.4c-5.8,5.1-8.5,5.2-15.6,2.3c-2.2-0.9-4-1.4-5.6-1.4c0.2-0.1,0.4-0.3,0.6-0.4
				c12.5-9.2,26.6-23,43-23c3.7,0.4,7.2,1.8,10.9,1.8c2.6,0,5.5-0.8,8-0.4C993.6,578.3,992.3,579.2,990.7,578.8z M994,441.9
				c-2.7,1.3-5.3,3.2-7.4,5.4c-2.8-1.8-4.2-5.6-3.2-8.8c0.7-2.3,2.3-4.2,3.7-6.1c2.2-3.1,3.8-7,2.9-10.8c-0.9-3.7-5.2-6.7-8.7-5.2
				c0.9-2.9,4.5-4.3,7.6-3.9s5.7,2.4,8.2,4.2c-0.3,5.5,0.5,11.1,2.4,16.2C996.3,434.9,993.9,437.4,994,441.9z M1029.5,586.2
				c-5,1.3-9.9,2.9-14.5,5.2c-0.9-4.6-2-9.4-5-13.1c-2-2.5-5.2-4.2-8.3-4.2c-1.8-4.2-4-8.1-3-8.4c7.4-2.1,15.7,5.9,13.7,13.4
				c3.6,0.2,7.3-0.5,10.5-2.2C1026.3,578.8,1028.8,582.3,1029.5,586.2z M1034.1,454.9c-0.7,0.5-1.5,1-2.3,1.4
				c-1.5-1.7-3-3.5-4.5-5.2c0.6-2.7,0.5-5.6-0.1-8.3c-0.6-2.3-1.5-4.5-1.4-6.9c0.3-7,8.9-9.9,15.8-10.8c0.8,4.8,0.7,9.8-0.3,14.5
				c2.5,0.8,5,1.6,7.6,2.4C1044.4,447,1039.5,451.3,1034.1,454.9z M1077.9,513.8c-1-1.5-2.1-3-3.1-4.4c1.2,0.6,2.3,1.3,3.5,1.9
				C1078.2,512.1,1078.1,513,1077.9,513.8z M1083.7,491.8c-4.6,2.8-10.5,0.2-15.9,0.2c-1.7,0-3.4,0.7-4.9,1.7
				c-3.5-4.5-7.1-8.9-10.7-13.3c3.6-2.7,8.5-3.6,12.8-2.1c3.1,1.1,5.7,3.3,8.9,4.2c3.2,0.9,7.4-0.4,8-3.6
				C1084,482.9,1084.6,487.5,1083.7,491.8z M1331.6,486.4c2.3,1.5,4.1,3.5,5.5,5.8c-1-0.9-2.1-1.8-3.2-2.7l-7.6,3.6
				C1328,490.9,1329.8,488.6,1331.6,486.4z"/>
		</g>
		<path class="st24" d="M1366.9,494.2c4.8,5.6,9.9,12.7,7.6,19.7c-0.8,2.4-2.4,4.7-1.9,7.2c0.6,3,3.9,4.4,5.8,6.8
			c3.6,4.3,1.5,11.4-3,14.8c-4.5,3.3-10.6,3.7-16.2,3.1c-16.9-1.9-11.7,10.3-11.3,22.9c0.1,1.8,0.7,4.2,2.5,4.2c1,0,1.7-0.8,2.3-1.5
			c2.7-3.2,4.8-6.9,6.3-10.8c2.5,2.6,6.3,3.9,9.9,3.5c0-4.2,1.2-9.7,5.3-10c1.3-0.1,2.9,0.3,3.7-0.7c0.6-0.8,0.3-1.9,0.3-2.9
			c0.1-4.4,6.2-5.7,8.7-9.3c1-1.4,1.3-3.2,1.6-4.8c1.2-6.2-1.2-25.4,0.7-26.4c2.1-1.1,4.7-1.7,6.2-3.5c1.4-1.8,1.3-4.7-0.3-6.4
			s-4.5-1.9-6.4-0.6c2-2.3-0.5-6-3.4-6.9c-2.9-0.9-6.1-0.3-9-1c-8-2-11.6-15.5-19.7-15.8C1344.1,475.1,1364.9,491.9,1366.9,494.2z"
			/>
		<path class="st24" d="M1466.2,773.4c0.4-0.7,1.6-0.5,1.9,0.2c-1.4,1.7-2.8,3.4-3.3,5.5c-0.6,2.1-0.1,4.6,1.6,5.8
			c0.6,0.4,1.3,0.7,1.8,1.2c1.2,1.4-0.1,3.6,0.4,5.3c0.5,1.8,3.3,2.5,4.6,1.1c1.3-1.4,0.5-4-1.3-4.5c2.5-0.6,4-3.5,3.7-6.1
			c-0.2-2.6-1.8-4.8-3.5-6.8c-1.2-1.4-3.4-2.8-4.8-1.5"/>
		<path class="st24" d="M1345.2,651.5c0.5,5,1.1,10.1,1.6,15.1c0.2,1.5,0.3,3,1.2,4.3s2.6,2,3.9,1.3c-0.6-3.2-0.3-6.8,1.6-9.5
			c1.7-2.2,4.6-4.8,3-7.2c-2.1-3.2-8.8,0.9-10.5-2.6c-0.4-0.8-1.2-2.1-1.8-1.4"/>
		<path class="st24" d="M1323.4,687.2c-2,0.7-3.3,2.8-3.3,4.9c0.1,2.1,1.6,4.1,3.6,4.7c0.7-1.6,1-3.5,0.7-5.2
			c0.9-0.1,1.7-0.5,2.3-1.2c-0.8-1-1.6-2-2.5-3.1"/>
		<path class="st24" d="M1351.6,681.1c-0.8,1.8,0.2,4.2,2,4.9c3.4,1.3,7.2-2.8,10.6-1.3c0-1,0-2.1,0-3.1c-2-0.2-3.5-1.7-5.2-2.8
			c-1.7-1.1-4.3-1.5-5.4,0.2"/>
		<path class="st24" d="M840.4,488.9c-1.2-1.2-2.9-1.5-4.6-1.9c-4.2-0.8-8.3-1.7-12.5-2.5c2.5-2.5,0-6.7-2.5-9.3
			c-4.8-4.9-9.5-9.7-14.3-14.6c-1-1.1-2.2-2.2-3.7-2.4c-3.2-0.4-5,3.4-6.5,6.2c-2.3,4.4-7.2,8.3-12.1,7c-2.3-0.6-4.2-2.2-6.3-3.4
			c-1.8-0.9-3.8-1.5-5.9-1.6c-2.2-3.2-6.1-5.7-8.8-3.3c0.2,0.9,0.5,1.9,0.6,2.9c-1.4,2.1-1.5,4.6-1.4,7.2c-1.1,1.3-2.7,2.1-4.4,1.8
			c1-3.1,2-6.4,1.5-9.6c-0.6-3.2-3.4-6.3-6.7-6c-3.1,0.3-5.1,3.2-6.7,5.9c-3.9,6.5-7.9,13-9.6,20.4c-0.7,2.8-1,5.7-2.3,8.2
			c-1.3,2.5-3.9,4.7-6.7,4.5c2.1-8.9-4.7-18.9-13.8-20.3c-0.7-0.1-1.5-0.2-2-0.6c-0.8-0.7-0.8-2-0.8-3.1c0.3-6.9,0.1-13.8-0.7-20.7
			c5.3-0.3,8.5-7.7,13.8-7.1c3,0.4,4.9,3.2,7,5.3c2.2,2,6.3,3.1,7.8,0.5c1.2-2,1-5.9,3.2-5.4c0.6,0.1,1,0.6,1.5,1
			c3.3,2.5,8.8-1.6,7.3-5.5c-0.5-1.2-1.4-2.2-1.8-3.5c-1.1-3.8,3.3-6.7,7-8.2c1.4,1.2,3.3,1.9,5.2,1.8c4,0.3,4.6,6.3,2.4,9.7
			s-6,5.9-6.9,9.8c2.4-2.8,6.8-3.7,10.1-1.9c2.2,1.2,3.7,3.3,5.8,4.5c2.1,1.3,5.4,1.4,6.5-0.8c3.3-6.5,3.4-9.3,11.9-9.7
			c0-1.6-4-11.9-4.2-11.9c-4.3-0.8-8.6-1.7-12.9-2.5c-0.6-1,0.5-2.2,0.8-3.3c1-2.9-2.9-4.9-6-5.2c-7.7-0.6-20.6-13.2-27-1.3
			c-1.6-0.5-2.6-1.5-3.8-2.7c-0.8,2.2-3.9,1.8-6.3,1.8c-3.8,0-7.4,2.5-9.6,5.6c-2.2,3.1-3.4,6.9-4.6,10.5c-1.6,0-3.2,0-4.8-0.1
			c1.3-2.3,1.9-5,1.8-7.7c-3.7,1.1-7.3,2.1-11,3.2c-1.4-2-2.8-4.1-3.2-6.5c-0.5-2.4,0.3-5.2,2.4-6.5c1.2-0.7,2.6-0.8,3.9-1.5
			c1.3-0.7,1.8-1.9,1.3-3.1c-5.6,1.4-10.6-5.5-15.6-1.3c-2.5,2.1-3.5,5.5-4.3,8.6c-0.9,0.4-1.9-0.7-2.1-1.7c-0.2-1-0.1-2.2-0.7-3
			c-0.8-1-2.6-0.8-3.5,0.1c-1,0.9-1.4,2.2-1.8,3.5c0.7-2.2-24.4-4.9-27-0.1c-1.3,2.3,0.6,11.2,3.7,12.3c2.6,0.9,5.4,0.3,8-0.3
			c2.7,11.6-34.2,7.8-40.1,6c-2.5-0.8-5-2-7.6-1.6c-3.2,0.5-5.5,3.2-8.5,4.3c-3.4,1.2-7.2,0.1-10.3-1.6c-3.1-1.8-5.8-4.2-8.9-6.1
			c-11.7-7.2-20.1-1.5-31.7,0c-2.8,0.4-7.8-1.8-10.3-0.2c-0.7,0.4-5.8,6.9-3.1,6.9c-4-0.1-13.6-3.1-18.3-0.9c-2.1,1-3.2,3-2.4,6.7
			c5.7-0.7,12.3,3.9,10.9,10.2c-3.1-0.7-6.3,0.2-9.4,1c-2.9,0.8-5.8,1.6-8,3.5c-0.8,0.7-1.4,1.5-1.9,2.5c-0.1,0-0.1,0-0.2,0
			c0,0.2,0,0.3,0,0.5c-0.7,1.6-0.7,3.5,0.2,5c0.9,0,1.8-0.6,2.3-1.4c1.1,0.6,2.4,0.9,3.6,0.8c3-0.3,5.4-2.3,8-3.7
			c2.6-1.5,5.9-2.5,8.5-1c1.3,0.7,2.6,2.1,3.9,1.5c1.2-0.5,1.5-2.3,2.8-2.7c1.1-0.4,2.2,0.5,3.3,0.9c3.2,1,6-2.3,9.1-1.8
			c3.9,0.5,5,4.1,9.5,4c5.6,0,12-4.6,17.1-0.8c5.9,4.5,2.1,18.1,1.6,24.2c-0.1,1.5-0.3,3.1-1.2,4.2c-1.5,1.9-4.5,1.9-6.3,3.6
			c-2.1,1.9-1.7,5.5-0.1,7.7c1.7,2.3,4.3,3.6,6.8,4.8c0.6,1.7-2.3,1.7-4,1.6c-3.8-0.2-6.1,5.5-3.4,8c-2.6-2.4-5.7,12.5-5.6,13.9
			c0.6,7,6.4,11.9,8,18.3c1.6,6.5-0.7,12.2-3.8,18.6c-1,2-2,4.8-0.3,6.2c1,0.9,2.7,0.8,3.7,1.7c1.7,1.6,0.3,4.4-1.3,6.2
			c-1.6,1.7-3.4,4.1-2.3,6.1c0.5,0.9,1.5,1.4,2.3,2.1c2.3,2,2.8,5.7,1.1,8.2c1.8,0.6,3.6,1.3,5.4,1.9c1.8-1.6,1.7-4.5,0.9-6.8
			c-0.8-2.3-2.2-4.4-2.5-6.8c-0.4-3.2,1.2-6.3,1.7-9.5c0.8-5-0.7-11.3,3.4-14.1c1.3,1.5,3.2,2.4,5.1,2.6c0.3,0,1.2-3.6,1.3-4
			c-0.8,12.8,5.1,33.1,14,42.6c2,2.1,4.3,4,7.1,4.7c2.8,0.7,6.1-0.2,7.6-2.7c0.2-0.3,0.3-0.6,0.5-0.9c1.6,0.1,3.1,0.1,4.7,0.2
			c0.9,1.6,1.7,3.2,2.6,4.8c0.5,1,1.1,2,2.1,2.6c2.3,1.4,5.1-0.4,7-2.3c0.5-0.5,1-1,1.6-1.5c0.4,0.2,0.7,0.5,1.1,0.7
			c1.7,4.2,3.8,7.7,7.5,10.6c3.5,2.7,7.5,0.5,11.9,4.9c2.9,3,3.4,9.2,5.5,12.8c8.7,14.8,32.7,7.8,46.8,17.6c2.4,1.7,4.6,4.1,5,7.1
			c1.2,9.7-13.3,23.4-19.9,28.9c-0.9,0.7-1.8,1.5-2.4,2.5c-1.3,2.3-0.1,5.6,2.4,6.5c2,0.7,5.2,0.7,5.3,2.9c0,0.7-0.3,1.2-0.7,1.8
			c-0.8,1.4-1.7,2.7-2.5,4.1c-1.4,2.2-2.8,4.6-2.8,7.3c0,2.6,1.9,5.5,4.5,5.4c1.7,0,3.2-1.2,4.4-2.5c3.5-3.5,6.3-7.6,8.3-12.1
			c1.4-3.1,2.5-6.7,5.4-8.5c2.9-1.8,7.3-1.6,9.2-4.4c2.5-3.6-1-7.7-0.3-11.5c0.7-3.6,5.5-9.1,8.3-11.2c3.2-2.4,7.2-3.4,11-4.8
			c10.1-3.8,19.9-9.3,27.3-17.3c2.6-2.8,2.6-5.3,0-8.3c-1.2-1.4-3.1-2.3-4.9-1.7c-1.2,0.4-2.5,1.5-3.6,0.8c-0.5-0.3-0.7-0.7-1-1.2
			c-1.6-3.1-2.8-6.4-3.5-9.9c-0.1-0.7-0.2-1.6,0.3-2.1c0.3-0.3,0.7-0.4,1.2-0.4c2.6-0.5,5.2-0.9,7.8-1.4c-1.3-1.1-2.6-2.2-3.3-3.7
			c-0.7-1.5-0.4-3.6,1.1-4.4c0.5-0.3,1.1-0.4,1.5-0.8c0.5-0.5,0.6-1.3,0.6-2c0.2-3.3,0.4-6.5,0.6-9.8c0.1-1.4,0.2-2.9-0.3-4.2
			c-0.5-1.3-1.6-2.6-3-2.7c-1.3-0.1-2.4,0.7-3.5,1.3c-1.6,1-8.5,4.6-10.5,3.6c-3.2-1.6-1.8-5.3,0.9-6.9c0.7-0.4,1.3-0.7,2.1-1
			l3.6,2.6c-0.9-1.5-0.5-3.4,0.5-4.8c0.4-0.3,0.7-0.7,1-1c1-0.8,2.3-1.3,3.6-1c0-1.5,0-3.1,0-4.6c-0.6,0.2-1.3,0.2-1.9,0.1
			c0-2.4-1-4.8-2.9-6.3c-4.2-0.2-8.5,2-10.9,5.5c-0.4,0.6-0.7,1.1-1.1,1.7c-7.4,0.2-8.9-21.2-2.6-23.8c1.6-0.6,3.9-0.7,4.5-2.3
			c0.9-2.6-4.2-4.8-2.9-7.3c0.8-1.5,3.1-1.2,4.2-2.3c1.8-1.8-0.8-4.2-2-6.7c3.5-8.4,7.8-17.7,11.9-19.5c3.7-1.6,9.1-0.4,11-3.9
			c1-1.9,0.3-4.2,0.2-6.3c-0.2-2.1,0.8-4.8,2.9-5c2.6-0.2,4.4,3.8,7,3.1c3.5-0.9,3-8.5,6.5-10.5c5.1-2.9,6.3,1.2,10.6,0.5
			c8.2-1.4,12.6-9.4,22.3-6.8c4.1,1.1,8.4,2.7,12.4,1.6C840.5,497.4,843.4,491.8,840.4,488.9z M749.3,588.9
			c-0.1,0.1-0.2,0.1-0.3,0.2c-3.1,2.1-4.5-0.2-4.9-4L749.3,588.9z M626,580.2c0.6-2.6,1.6-5.2,2.9-7.5c1.6,7.2,4.3,14.3,7.1,21.5
			c-0.3,0.1-0.6,0.3-0.9,0.4C628.5,596.6,624.4,586.9,626,580.2z"/>
	</g>
</g>
<path class="st25" d="M658.3,558.7c0,0,96.3-54.5,183.3-26.5c150.7,48.3,152.5,184.9,152.5,184.9s7.3-173.7,161.7-214.7
	c93.6-24.8,154.4,6.9,154.4,6.9"/>
<path class="st9" d="M647,577.1l-11.8-11.8l11.8-11.8c1.2-1.2,1.2-3.2,0-4.5c-1.2-1.2-3.2-1.2-4.5,0l-11.8,11.8l-11.8-11.8
	c-1.2-1.2-3.2-1.2-4.5,0c-1.2,1.2-1.2,3.2,0,4.5l11.8,11.8l-11.8,11.8c-1.2,1.2-1.2,3.2,0,4.5c1.2,1.2,3.2,1.2,4.5,0l11.8-11.8
	l11.8,11.8c1.2,1.2,3.2,1.2,4.5,0C648.3,580.3,648.3,578.3,647,577.1z"/>
<path class="st9" d="M1352.2,516.1l-11.8-11.8l11.8-11.8c1.2-1.2,1.2-3.2,0-4.5c-1.2-1.2-3.2-1.2-4.5,0l-11.8,11.8l-11.8-11.8
	c-1.2-1.2-3.2-1.2-4.5,0s-1.2,3.2,0,4.5l11.8,11.8l-11.8,11.8c-1.2,1.2-1.2,3.2,0,4.5c1.2,1.2,3.2,1.2,4.5,0l11.8-11.8l11.8,11.8
	c1.2,1.2,3.2,1.2,4.5,0C1353.4,519.3,1353.4,517.3,1352.2,516.1z"/>
<path class="st9" d="M789.8,762.2l-11.8-11.8l11.8-11.8c1.2-1.2,1.2-3.2,0-4.5c-1.2-1.2-3.2-1.2-4.5,0L773.6,746l-11.8-11.8
	c-1.2-1.2-3.2-1.2-4.5,0c-1.2,1.2-1.2,3.2,0,4.5l11.8,11.8l-11.8,11.8c-1.2,1.2-1.2,3.2,0,4.5c1.2,1.2,3.2,1.2,4.5,0l11.8-11.8
	l11.8,11.8c1.2,1.2,3.2,1.2,4.5,0C791,765.5,791,763.5,789.8,762.2z"/>
<g>
	<g class="st3">
		<path d="M1473.5,684.9c0.1-14-11.7-25.5-27.2-25.6l-0.5,50.7C1461.3,710.2,1473.4,698.9,1473.5,684.9z"/>
		<path d="M1732.3,1402.5l15.1-9.2l-200.4-330l6.8-4.1c5.2-3.2,6.9-10,3.7-15.3l-39.4-64.9c-3.2-5.2-10-6.9-15.3-3.7l-6.8,4.1l0,0
			l-23.2,14.1l-76.6-126.2l-13-22.8l-20.9-44c0,0-2.8-48-5.8-91.2l68.1,0.6l0,0l21.2,0.2l0.5-50.8l-93.5-0.9
			c-0.6-6.7-1.1-11.8-1.5-14.6c-2.9-19.4-25.4-29.4-54.9-44c-33.1-16.5-56.8-30.5-80.3-30.5c-34-0.1-139.4,33.4-153.1,37.4
			c-27.1,7.9-18.8,40.5,7.3,49.1l-0.8,0l-37,15.5l0,0l-22,9.2l0,0l0,0l58.5,25.9l0.2-16.9l0,0l0,0l0,0v0l0,0l-0.2,17.1l10.8,0.1
			c6.6,8.4,18.4,11.4,28.4,6.6l0.8-0.4c-7.5,11.4-6.1,26.5,3.5,36.2l2.7,2.7c8.9,9.1,23.2,10.3,33.6,2.8c-7,11.3-5.4,25.9,3.9,35.3
			c8.6,8.8,22,10.9,32.9,5.2l6-3.1c0,0-12.3,46.8,27.4,82.3c36.7,32.7,59.1,49.8,62.3,52.2l81.4,134l-27.3,16.6
			c-5.2,3.2-6.9,10-3.7,15.3l39.4,64.9c3.2,5.2,10,6.9,15.3,3.7l4-2.4l9.6,15.8l0,0l190.8,314.2l17-10.3l0,0l24.6-14.9l0,0l10.9-6.6
			l14.5-8.8l0,0l24.6-14.9l0,0l41.9-25.5l0,0L1732.3,1402.5L1732.3,1402.5z M1069.4,672.6L1069.4,672.6L1069.4,672.6L1069.4,672.6
			L1069.4,672.6z"/>
	</g>
	<path class="st26" d="M1305.4,625.4c0,0-63.5-49.4-118.2-33c-54.6,16.4-83,25.5-83,25.5l-0.3,32.6v0c-11.8,5.4-16.9,19.4-11.4,31.2
		l0.3,0.7c5.5,11.8,19.5,16.8,31.3,11.2l0.8-0.4l0,0c-7.5,11.4-6.1,26.5,3.5,36.2l2.7,2.7c8.9,9.1,23.2,10.3,33.6,2.8v0v0
		c-7,11.3-5.4,25.9,3.9,35.3l0,0c8.6,8.8,22,10.9,32.9,5.2l6-3.1l101.9-29.3L1305.4,625.4z"/>
	<path class="st27" d="M1399.1,824.9l-20.9-44c0,0-8.1-137.2-11-156.7s-25.4-29.4-54.9-44c-33.1-16.5-56.8-30.5-80.3-30.5
		c-34-0.1-139.4,33.4-153.1,37.4c-32.3,9.4-14.4,53.8,24.1,51c33.2-2.4,124.7-29.4,124.7-29.4l59.3,29c0,0,16.8,74.9-7.1,87.2
		s-28.9,7.2-28.9,7.2l-43.6,40.3c0,0-12.3,46.8,27.4,82.3c39.7,35.4,62.8,52.6,62.8,52.6l114.7-59.2L1399.1,824.9z"/>
	<g>
		
			<rect x="1175.9" y="462.3" transform="matrix(-0.4198 -0.9076 0.9076 -0.4198 1138.6835 1977.1202)" class="st8" width="50.8" height="324.5"/>
		<path class="st28" d="M1267.6,593.9L1267.6,593.9c2.7,5.7,0.2,12.5-5.6,15.2l-111.9,51.7c-5.7,2.7-12.5,0.2-15.2-5.6v0
			c-2.7-5.7-0.2-12.5,5.6-15.2l111.9-51.7C1258.2,585.7,1265,588.2,1267.6,593.9z"/>
		
			<rect x="1302.5" y="560.5" transform="matrix(-0.4198 -0.9076 0.9076 -0.4198 1371.7651 2008.777)" class="st28" width="50.8" height="10.9"/>
		
			<rect x="1050.9" y="677" transform="matrix(-0.4198 -0.9076 0.9076 -0.4198 908.7662 1945.8975)" class="st28" width="51" height="10.9"/>
		<path class="st28" d="M1006.5,708.2l4.6,9.9l-9.7,4.5c-1.3,0.6-2.7,0.5-4-0.1l-1.1-0.6c-1.7-0.9-2.5-2.8-2.2-4.6l0.2-1.3
			c0.3-1.4,1.2-2.6,2.5-3.2L1006.5,708.2z"/>
		<path class="st29" d="M1043.3,669.5l21.4,46.3l-11.7,5.4c-2.7,1.2-5.8,0.1-7.1-2.6l-16.9-36.6c-1.2-2.7-0.1-5.8,2.6-7.1
			L1043.3,669.5z"/>
		
			<rect x="1005.3" y="704" transform="matrix(-0.4198 -0.9076 0.9076 -0.4198 795.8539 1929.7806)" class="st29" width="18.8" height="13"/>
		<path class="st29" d="M1362.9,536.6l10.2,22c3.1,6.7,0.2,14.6-6.5,17.7l-7.6,3.5l-21.3-46.1l7.6-3.5
			C1351.9,527.1,1359.8,530,1362.9,536.6z"/>
		<polygon class="st28" points="1023.7,716.7 1045.9,718.6 1029,681.9 1016.4,699.7 		"/>
	</g>
	<path class="st27" d="M1268.6,829.7l-113.8-116c-11.8-12-11.6-31.4,0.4-43.2l0,0c12-11.8,31.4-11.6,43.2,0.4l113.8,116
		L1268.6,829.7z"/>
	
		<rect x="1453.8" y="826" transform="matrix(0.8547 -0.5191 0.5191 0.8547 -374.7767 954.8538)" class="st27" width="129" height="641.9"/>
	<g>
		
			<rect x="1467.5" y="972.2" transform="matrix(0.8547 -0.5191 0.5191 0.8547 -403.8263 985.8684)" class="st30" width="183.4" height="484.2"/>
		<path class="st31" d="M1569.6,1039.5L1402,1141.3c-5.2,3.2-12.1,1.5-15.3-3.7l-39.4-64.9c-3.2-5.2-1.5-12.1,3.7-15.3l167.6-101.8
			c5.2-3.2,12.1-1.5,15.3,3.7l39.4,64.9C1576.5,1029.5,1574.8,1036.3,1569.6,1039.5z"/>
		
			<rect x="1397.5" y="1089.9" transform="matrix(0.8547 -0.5191 0.5191 0.8547 -354.2117 932.8163)" class="st32" width="183.4" height="18.5"/>
		
			<rect x="1521.2" y="1093" transform="matrix(0.8547 -0.5191 0.5191 0.8547 -444.5084 984.0318)" class="st32" width="28.8" height="386.1"/>
		
			<rect x="1571.2" y="1062.6" transform="matrix(0.8547 -0.5191 0.5191 0.8547 -421.4618 1005.5898)" class="st32" width="28.8" height="386.1"/>
		
			<rect x="1621.2" y="1032.2" transform="matrix(0.8547 -0.5191 0.5191 0.8547 -398.4152 1027.1477)" class="st32" width="28.8" height="386.1"/>
	</g>
</g>
</svg>
