<svg width="2000" height="2000" xmlns="http://www.w3.org/2000/svg">
 <style type="text/css">.st0{fill:#754C24;}
	.st1{fill:#603813;}
	.st2{fill:#845732;}
	.st3{opacity:0.1;}
	.st4{fill:#333333;}
	.st5{fill:#0F0F0F;}
	.st6{fill:#AAAAAA;}
	.st7{stroke:#FFFFFF;stroke-width:18.1901;stroke-miterlimit:10;}
	.st8{fill:#FFFFFF;}
	.st9{fill:#CC333F;}
	.st10{fill:#EAEAEA;}
	.st11{fill:none;stroke:#FFFFFF;stroke-width:4.6001;stroke-linecap:round;stroke-miterlimit:10;}
	.st12{fill:#B3E2E5;}
	.st13{fill:#EB6841;}
	.st14{fill:#0076AE;}
	.st15{fill:#009DCB;}
	.st16{fill:#0B4A70;}
	.st17{fill:#F8DF88;}
	.st18{fill:#E6E6E6;}
	.st19{fill:none;stroke:#E6E6E6;stroke-width:7;stroke-miterlimit:10;}
	.st20{fill:none;stroke:#FFFFFF;stroke-width:3.4854;stroke-linecap:round;stroke-miterlimit:10;}
	.st21{fill:none;stroke:#FFFFFF;stroke-width:4.0203;stroke-miterlimit:10;}
	.st22{fill:#066489;}
	.st23{fill:#0A4C60;}
	.st24{fill:#B7DD5B;}
	.st25{fill:none;stroke:#CC333F;stroke-width:5;stroke-miterlimit:10;stroke-dasharray:15,15;}
	.st26{fill:#EFBEA3;}
	.st27{fill:#FFD6B8;}
	.st28{fill:#C1272D;}
	.st29{fill:#A81E29;}
	.st30{fill:#998675;}
	.st31{fill:#C7B299;}
	.st32{fill:#897463;}</style>

 <g>
  <title>background</title>
  <rect fill="none" id="canvas_background" height="2002" width="2002" y="-1" x="-1"/>
 </g>
 <g>
  <title>Layer 1</title>
  <g stroke="null" id="svg_106">
   <polygon stroke="null" id="svg_107" points="1314.155029296875,509.6490898132324 684.0405883789062,595.5330619812012 104.38337707519531,574.9842338562012 156.89285278320312,1684.4503593444824 684.0405883789062,1703.5941581726074 1321.8519287109375,1680.41068649292 1837.539794921875,1699.9056816101074 1918.0999755859375,604.1390800476074 " class="st3"/>
   <polygon stroke="null" id="svg_108" points="684.0405883789062,1703.5941581726074 80.26661682128906,1600.3226737976074 80.26661682128906,442.7333793640137 684.0405883789062,546.0048332214355 " class="st8"/>
   <polygon stroke="null" id="svg_109" points="1314.155029296875,1617.5345878601074 684.0405883789062,1703.5941581726074 684.0405883789062,546.0048332214355 1314.155029296875,459.9453239440918 " class="st8"/>
   <polygon stroke="null" id="svg_110" points="1918.0999755859375,1712.2001152038574 1314.155029296875,1617.5345878601074 1314.155029296875,459.9453239440918 1918.0999755859375,554.6108818054199 " class="st8"/>
   <polygon stroke="null" id="svg_111" points="676.3438110351562,1648.97269821167 153.64309692382812,1557.1171073913574 153.64309692382812,509.12214279174805 676.3438110351562,601.1533012390137 " class="st14"/>
   <polygon stroke="null" id="svg_112" points="1321.8519287109375,1557.1171073913574 676.3438110351562,1648.97269821167 676.3438110351562,601.1533012390137 1321.8519287109375,509.12214279174805 " class="st22"/>
   <polygon stroke="null" id="svg_113" points="1844.552490234375,1648.97269821167 1321.8519287109375,1557.1171073913574 1321.8519287109375,509.12214279174805 1844.552490234375,601.1533012390137 " class="st23"/>
   <g stroke="null" id="svg_114">
    <path stroke="null" id="svg_115" d="m457.753653,1249.585886c0.684163,1.229423 0.513122,2.810109 0.342082,4.215163c-0.684163,5.620217 -1.368326,11.240435 -2.05249,17.036284c-0.342082,2.283213 -0.513122,4.742058 1.026245,6.322745c2.05249,2.283213 5.986428,1.053791 8.381,2.810109c1.026245,0.702527 1.710408,1.93195 2.223531,2.98574c2.565612,4.91769 4.618102,10.186644 5.815388,15.455598c0.684163,2.810109 1.197286,5.795849 2.736653,8.079062c1.881449,2.810109 4.960183,4.390795 7.354755,6.84964s3.933939,6.322745 2.05249,9.132853c-5.815388,1.93195 -12.828061,3.688268 -17.617203,-0.351264c-1.368326,-1.229423 -2.394571,-2.810109 -3.762898,-4.215163c-5.302265,-5.444586 -13.854306,-5.268954 -20.353856,-8.957221c-9.920367,-5.795849 -12.65702,-18.968234 -14.196387,-30.559932c-1.881449,-12.821121 -7.867877,-40.219681 6.32851,-47.771848c4.447061,-2.283213 8.723081,-2.810109 11.288693,1.756318c1.710408,2.98574 -0.513122,7.552167 1.710408,10.889171c2.223531,3.337004 7.012673,3.161372 8.723081,6.322745z" class="st24"/>
    <path stroke="null" id="svg_116" d="m568.246016,1241.331192c-13.170142,2.458845 -25.31404,10.011012 -33.352958,20.900183c-1.710408,2.283213 -3.249775,4.742058 -3.249775,7.552167c-0.171041,5.971481 6.157469,10.362276 6.841632,16.333757c1.026245,8.957221 -10.433489,13.523648 -15.222632,21.075815c-3.420816,5.444586 -3.591857,12.996753 -8.209959,17.387547c-9.236204,8.78159 -27.195489,7.727799 -24.971958,25.817874c0.855204,7.376535 5.302265,11.064803 10.775571,15.279966c5.644347,4.566427 7.696836,8.957221 12.65702,13.69928c12.314938,11.942962 29.247978,15.806861 44.128529,23.359028c7.525796,3.863899 12.485979,7.552167 16.93304,14.753071c4.447061,7.025272 6.499551,15.104334 14.70951,18.61697c8.381,3.512636 19.327611,0 25.827162,6.322745c8.209959,8.079062 5.473306,17.738811 17.275122,22.129606c11.117653,4.215163 20.182815,8.254694 29.932142,15.806861c8.55204,6.498376 16.248877,14.401807 24.287795,21.427079c11.630775,10.186644 24.629877,15.806861 36.602733,25.290978c1.197286,-1.93195 -0.171041,-4.390795 -1.710408,-6.147113c-17.275122,-21.251447 -45.496855,-42.327262 -45.496855,-73.589721c-3.249775,-15.63123 -2.05249,-29.154878 12.65702,-35.828886c4.960183,-2.283213 9.749326,-1.405054 11.630775,-8.079062c2.394571,-8.78159 -6.670592,-10.713539 -10.60453,-16.68502c-1.710408,-2.458845 -2.223531,-5.444586 -2.394571,-8.430326c-0.855204,-8.079062 -0.342082,-16.333757 1.539367,-24.237187c0.855204,-3.512636 1.881449,-7.025272 1.368326,-10.537908c-1.026245,-6.674008 -7.183714,-11.240435 -8.894122,-17.738811c-2.05249,-7.727799 2.907694,-15.63123 8.723081,-21.251447c6.157469,-5.795849 10.775571,-14.226175 17.104081,-19.495129c4.618102,-3.688268 10.60453,-4.390795 14.88055,-8.957221c4.789143,-5.093322 1.368326,-10.362276 4.104979,-15.455598c2.565612,-4.742058 7.354755,-5.444586 11.801816,-7.200904c4.447061,-1.756318 8.723081,-7.903431 4.960183,-11.064803c-1.710408,-1.580686 -4.27602,-1.229423 -6.499551,-1.756318c-4.789143,-1.229423 -8.209959,-6.84964 -7.012673,-11.76733c1.881449,-7.552167 9.578285,-4.215163 12.143897,-8.430326c2.736653,-4.566427 -1.026245,-16.509389 -3.591857,-20.54892c-3.249775,-5.444586 -10.262449,-8.78159 -15.906795,-5.971481c-1.539367,0.878159 -2.907694,1.93195 -4.618102,2.634477c-6.841632,2.634477 -12.65702,-5.093322 -19.327611,-8.254694c-3.078735,-1.405054 -6.499551,-1.756318 -9.920367,-2.107582c-10.433489,-1.053791 -21.380101,-1.756318 -30.616305,3.337004c-4.447061,2.458845 -8.381,6.322745 -10.775571,10.889171c-1.881449,3.512636 -3.249775,7.727799 -6.499551,10.011012c-1.881449,1.405054 -4.27602,1.756318 -6.499551,2.283213c-9.236204,1.93195 -18.472407,3.688268 -27.708611,5.620217c-1.710408,0.351264 -3.420816,0.702527 -4.447061,2.107582c-1.026245,1.580686 -0.855204,3.512636 -1.026245,5.444586c-0.684163,8.079062 -11.288693,13.172384 -17.788244,8.430326c-1.197286,-0.878159 -2.394571,-1.93195 -3.762898,-1.93195c-1.026245,0 -1.881449,0.878159 -2.736653,1.580686c-1.881449,1.580686 -5.815388,5.444586 -8.038918,7.376535z" class="st24"/>
    <path stroke="null" id="svg_117" d="m1235.818295,1280.497082c-4.27602,9.132853 -8.381,18.265706 -12.65702,27.574191c3.078735,1.229423 6.32851,-1.053791 8.038918,-3.863899c1.710408,-2.810109 2.223531,-6.147113 3.762898,-9.132853c1.539367,-2.98574 4.618102,-5.444586 7.696836,-4.566427c0.855204,0.175632 1.539367,0.702527 2.394571,0.878159c2.907694,0.702527 5.473306,-2.283213 6.32851,-5.268954c0.684163,-2.98574 0.342082,-6.147113 1.026245,-9.132853c1.368326,-5.444586 26.340285,-33.018777 5.302265,-30.208668c-4.960183,0.702527 -14.88055,8.079062 -17.788244,11.942962c-6.499551,7.552167 -0.513122,13.874912 -4.104979,21.778342z" class="st24"/>
    <path stroke="null" id="svg_118" d="m862.094126,860.03457c-7.696836,0.526895 -12.828061,10.537908 -9.065163,17.387547c1.539367,2.810109 4.27602,4.91769 4.960183,8.079062c1.368326,5.444586 -3.933939,11.76733 -1.026245,16.509389c3.078735,4.742058 11.117653,1.053791 12.65702,-4.390795c1.539367,-5.620217 -0.342082,-11.416067 -0.513122,-17.211916c3.933939,2.283213 8.723081,-3.512636 7.012673,-7.903431c-1.710408,-4.390795 -6.670592,-6.322745 -11.117653,-6.674008c1.368326,-0.878159 2.736653,-1.93195 4.104979,-2.810109" class="st24"/>
    <path stroke="null" id="svg_119" d="m900.578308,859.858938c-2.907694,0.526895 -3.762898,4.742058 -2.736653,7.727799c1.026245,2.98574 3.249775,5.444586 3.762898,8.430326c0.684163,3.688268 -0.855204,8.254694 1.539367,11.240435c2.05249,2.458845 6.157469,2.107582 8.55204,0c2.394571,-2.107582 3.591857,-5.268954 4.447061,-8.430326c1.539367,-6.322745 2.05249,-12.821121 1.368326,-19.319497c-0.342082,-2.634477 -0.684163,-5.971481 1.368326,-7.727799c1.026245,-1.053791 2.394571,-1.229423 3.591857,-2.107582c2.907694,-1.93195 3.249775,-6.498376 1.539367,-9.484117c-1.710408,-2.98574 -4.960183,-4.91769 -8.209959,-5.971481c-2.907694,-1.053791 -6.32851,-1.580686 -9.236204,-0.175632c-2.907694,1.405054 -4.789143,5.268954 -3.078735,7.903431c-11.459734,4.742058 -24.287795,-11.942962 -35.234407,-6.147113c-3.078735,1.580686 -6.670592,4.742058 -9.407245,2.458845c-2.394571,2.107582 -0.684163,6.84964 2.394571,7.903431c3.078735,1.053791 6.499551,-0.175632 9.407245,-1.756318c2.907694,-1.580686 5.815388,-3.337004 9.065163,-3.161372c-0.342082,3.688268 -0.513122,7.552167 0.855204,11.064803c1.368326,3.512636 5.131224,6.147113 8.55204,5.093322c0.342082,6.674008 6.32851,12.294226 12.828061,12.118594" class="st24"/>
    <path stroke="null" id="svg_120" d="m1538.560527,1263.63643c-3.762898,1.93195 -7.354755,4.390795 -10.60453,7.025272c-1.368326,1.229423 -2.907694,2.458845 -3.420816,4.215163c-1.539367,4.215163 1.881449,10.713539 -2.05249,12.821121c-2.394571,1.229423 -5.131224,-0.526895 -7.867877,-0.526895c-3.933939,0.175632 -6.499551,4.566427 -6.499551,8.430326s1.368326,7.727799 2.05249,11.76733c1.539367,9.83538 -11.117653,39.692785 7.696836,41.975999c12.65702,1.405054 12.314938,-20.373288 14.025346,-28.979246c4.618102,2.283213 8.209959,6.84964 9.236204,12.118594c2.394571,-1.229423 2.907694,-4.390795 3.762898,-7.200904c0.684163,-2.634477 2.565612,-5.795849 5.131224,-5.444586c4.960183,0.526895 4.618102,10.537908 9.407245,10.537908c1.026245,0 2.05249,-0.526895 3.078735,-1.229423c1.710408,-1.053791 3.591857,-2.458845 3.762898,-4.566427c0.342082,-2.107582 -2.394571,-4.215163 -3.762898,-2.634477c6.499551,-1.756318 13.341183,-2.810109 20.182815,-3.161372c0.855204,0 1.881449,0 2.736653,0.351264c3.420816,1.93195 0.342082,8.254694 3.078735,11.240435c3.762898,4.039531 11.459734,-4.039531 15.393673,0c2.394571,2.634477 0.342082,7.903431 3.249775,10.011012c5.131224,3.688268 10.091408,-0.702527 14.70951,6.147113c2.907694,4.390795 -1.026245,9.132853 4.27602,13.172384c6.841632,-11.064803 23.26155,-3.161372 33.181917,-7.727799c7.012673,-3.337004 10.433489,-11.76733 16.590959,-16.333757c8.894122,-6.674008 22.406346,-4.91769 29.932142,-13.348016c7.867877,-8.78159 3.933939,-23.359028 -2.907694,-33.018777c-6.841632,-9.659749 -16.248877,-18.090075 -19.327611,-29.681773c-1.710408,-6.84964 -1.026245,-14.050543 -2.223531,-21.075815c-1.197286,-7.025272 -5.131224,-14.401807 -11.801816,-15.806861c-2.907694,12.645489 -8.55204,24.588451 -16.419918,34.599463c5.302265,-6.674008 -11.630775,-22.832133 -16.590959,-24.412819c7.525796,2.283213 0.855204,-10.186644 -5.131224,-12.118594c-10.433489,-3.512636 -15.051591,3.688268 -24.800917,4.566427c-4.960183,0.351264 -9.920367,0 -14.70951,1.756318s-8.723081,6.498376 -7.525796,11.416067c0.342082,1.756318 1.368326,3.337004 1.368326,5.093322c0,1.93195 -1.197286,3.512636 -2.565612,4.742058c-7.012673,6.674008 -17.446163,7.025272 -26.853407,8.957221c-6.32851,1.229423 -12.314938,3.337004 -17.788244,6.322745z" class="st24"/>
    <path stroke="null" id="svg_121" d="m1518.548753,1132.615112c-2.565612,-1.93195 -4.789143,-3.863899 -7.525796,-4.390795c-1.881449,4.215163 0.855204,7.025272 2.565612,11.064803c1.539367,3.863899 3.078735,8.079062 5.986428,11.064803c2.907694,2.98574 7.696836,4.566427 11.288693,2.458845c1.368326,-0.878159 2.394571,-2.107582 3.762898,-2.634477c2.907694,-1.229423 6.157469,0.878159 8.381,3.161372c2.223531,2.283213 4.447061,4.91769 7.525796,5.620217c4.447061,0.878159 8.381,-2.810109 11.288693,-6.322745c0.855204,-1.053791 1.710408,-1.93195 2.05249,-3.161372c0.855204,-2.634477 -0.684163,-5.444586 -0.684163,-8.254694c0,-7.376535 10.091408,-12.469857 8.038918,-19.495129c-0.684163,-2.107582 -2.565612,-4.215163 -1.881449,-6.322745c0.342082,-1.229423 1.368326,-1.93195 2.394571,-2.634477c3.933939,-2.810109 7.696836,-7.025272 7.012673,-11.76733c-0.684163,-4.91769 -6.157469,-9.132853 -4.618102,-13.874912c-6.157469,-3.688268 -13.854306,-1.053791 -20.524897,1.756318c-2.736653,1.229423 -5.644347,2.634477 -7.012673,5.444586c-1.026245,2.107582 -1.026245,5.093322 -3.249775,6.147113c-2.223531,1.053791 -4.789143,-0.878159 -7.183714,-0.351264c-3.078735,0.702527 -3.591857,5.093322 -2.736653,8.254694c0.855204,3.161372 2.565612,6.322745 1.539367,9.484117c-1.368326,4.039531 -6.499551,5.093322 -10.60453,5.444586c-0.855204,1.93195 -0.171041,4.039531 0,5.971481c0.171041,2.107582 -0.684163,4.566427 -2.736653,4.742058c-1.197286,0 -2.05249,-0.702527 -3.078735,-1.405054z" class="st24"/>
    <path stroke="null" id="svg_122" d="m1567.979546,1170.200316c-2.05249,1.053791 -3.078735,3.337004 -3.420816,5.620217c-1.368326,8.78159 5.302265,16.333757 11.630775,22.480869c4.618102,-0.351264 4.104979,-7.727799 1.197286,-11.416067c-2.907694,-3.688268 -7.183714,-7.903431 -5.302265,-12.294226c1.368326,-3.161372 5.815388,-5.093322 5.131224,-8.430326c-2.907694,-2.283213 -5.986428,-4.566427 -8.894122,-6.84964" class="st24"/>
    <path stroke="null" id="svg_123" d="m1478.867285,1194.964399c1.881449,5.620217 8.55204,10.713539 13.170142,7.200904c2.223531,-2.98574 3.249775,-6.84964 3.078735,-10.537908c2.565612,-1.93195 6.32851,-0.526895 8.381,1.756318c2.223531,2.283213 3.591857,5.444586 5.644347,7.727799c7.354755,7.903431 20.011775,4.566427 29.932142,0.702527c-1.026245,-4.742058 -6.157469,-7.376535 -10.946612,-8.079062c-4.789143,-0.702527 -9.749326,-0.175632 -14.196387,-2.107582c-6.841632,-2.810109 -10.775571,-11.76733 -8.381,-18.968234c-19.669693,15.455598 -26.853407,-30.735564 -39.339386,-21.075815c-6.157469,4.742058 9.920367,34.775095 12.65702,43.381053z" class="st24"/>
    <path stroke="null" id="svg_124" d="m1651.960584,1209.541838c2.565612,2.98574 7.354755,0.702527 10.091408,-2.107582c2.565612,-2.810109 5.302265,-6.674008 9.236204,-6.498376c2.394571,0 4.27602,1.580686 6.32851,2.98574c8.723081,5.795849 20.011775,7.376535 30.103182,4.566427c-8.038918,-12.294226 -17.446163,-25.642242 -31.64255,-28.979246c-6.841632,-1.580686 -14.70951,-0.702527 -20.524897,-5.268954c-7.525796,-5.795849 -35.747529,-23.359028 -31.64255,0.702527c-0.342082,-1.580686 14.367428,8.957221 15.564714,10.362276c5.131224,6.322745 6.157469,17.036284 12.485979,24.237187z" class="st24"/>
    <path stroke="null" id="svg_125" d="m1721.745234,1195.14003c-1.710408,-4.390795 -8.381,-5.620217 -11.459734,-2.107582c-1.368326,4.742058 4.27602,8.079062 8.894122,9.484117s10.262449,4.215163 9.749326,8.957221c3.591857,-1.756318 5.131224,-6.84964 3.420816,-10.537908c-1.881449,-3.688268 -6.841632,-5.268954 -10.262449,-3.337004" class="st24"/>
    <path stroke="null" id="svg_126" d="m1646.658319,1364.800342c-9.920367,1.405054 -18.98553,8.079062 -23.432591,17.211916c3.249775,1.405054 7.354755,0.878159 10.091408,-1.580686c1.881449,1.405054 3.933939,2.634477 5.815388,4.039531c1.710408,-6.322745 2.565612,-12.996753 2.565612,-19.495129" class="st24"/>
    <path stroke="null" id="svg_127" d="m1733.204968,1410.64024c-5.131224,5.620217 -8.55204,13.348016 -7.354755,20.900183c-2.394571,-1.229423 -5.644347,1.229423 -5.302265,3.863899c1.026245,6.674008 29.59006,-21.778342 29.932142,-22.129606c9.578285,-6.674008 34.037121,-7.376535 28.050693,-24.061556c1.539367,-1.405054 3.591857,-2.283213 4.960183,-3.688268c-15.906795,-2.283213 -39.510427,13.523648 -50.285998,25.115346z" class="st24"/>
    <g stroke="null" id="svg_128">
     <path stroke="null" id="svg_129" d="m1516.838344,892.175188l13.170142,-6.322745c-3.420816,0.702527 -6.670592,1.756318 -9.749326,3.337004c-1.368326,0.878159 -2.394571,1.93195 -3.420816,2.98574z" class="st24"/>
     <path stroke="null" id="svg_130" d="m1484.340591,1081.330629c-0.171041,1.756318 -0.342082,3.337004 -0.342082,5.093322c2.907694,1.229423 6.157469,1.229423 9.407245,1.93195c-2.907694,-2.810109 -5.815388,-5.268954 -9.065163,-7.025272z" class="st24"/>
     <path stroke="null" id="svg_131" d="m1500.076345,1097.664385c2.394571,-3.512636 -1.710408,-8.079062 -5.644347,-9.132853c-0.342082,-0.175632 -0.855204,-0.175632 -1.197286,-0.175632c2.736653,2.634477 4.960183,5.795849 6.841632,9.308485z" class="st24"/>
     <path stroke="null" id="svg_132" d="m1658.631175,740.078055c-5.473306,-1.756318 -11.288693,-0.702527 -17.104081,0c-34.721284,4.215163 -61.061569,-12.645489 -93.730364,-14.753071c-23.26155,-1.405054 -42.931243,12.645489 -66.534875,-0.351264c-3.933939,-2.107582 -7.525796,-4.91769 -11.630775,-5.971481c-8.894122,-2.458845 -18.301367,2.634477 -27.366529,0.702527c-8.55204,-1.756318 -14.70951,-8.079062 -23.603632,-7.200904c-10.775571,1.053791 -9.920367,6.674008 -14.70951,13.69928c-1.197286,1.756318 -3.933939,0.351264 -5.473306,-1.229423c-4.960183,-4.91769 -9.407245,-10.186644 -13.683265,-15.63123c-3.762898,0.175632 -7.696836,0.175632 -11.459734,0.351264c-16.419918,0.351264 -32.839835,0.878159 -49.259753,1.229423c-2.394571,0 -4.789143,0.175632 -6.841632,1.405054c-4.789143,2.810109 -6.670592,11.416067 -12.143897,10.713539c-1.368326,-0.175632 -2.736653,-1.053791 -4.104979,-1.580686c-7.867877,-3.512636 -16.419918,1.756318 -23.945713,5.795849c-8.209959,4.215163 -15.735754,4.390795 -23.090509,-1.229423c-4.447061,-3.337004 -6.499551,-11.416067 -12.999102,-11.76733c-9.065163,-0.351264 -15.222632,13.69928 -24.458836,15.63123c-4.104979,0.878159 -9.578285,1.93195 -9.749326,6.147113c1.197286,-0.175632 1.881449,1.405054 1.539367,2.634477c-0.342082,1.053791 -1.539367,1.756318 -2.565612,2.458845c-1.539367,0.878159 -3.078735,1.756318 -4.618102,2.634477c-1.026245,0.702527 -2.565612,1.229423 -3.591857,0.702527c-1.026245,-0.526895 -1.197286,-1.756318 -1.710408,-2.810109c-2.394571,-4.91769 -9.920367,-2.98574 -13.341183,1.053791c-3.420816,4.215163 -5.131224,9.83538 -9.407245,12.996753c-2.05249,-4.566427 -8.038918,-6.322745 -12.485979,-4.566427c-4.447061,1.93195 -7.354755,6.84964 -7.696836,11.76733c-0.684163,-4.742058 -7.012673,-6.674008 -11.459734,-5.093322c-4.447061,1.580686 -7.867877,5.268954 -11.972857,7.727799s-9.749326,3.688268 -13.170142,0.351264c-3.078735,-2.98574 -2.736653,-9.83538 -2.05249,-13.69928c1.539367,0 17.788244,-1.93195 17.275122,-4.215163c-1.710408,-7.376535 -10.433489,-10.713539 -17.788244,-10.713539c-7.354755,0 -15.051591,1.756318 -22.064264,-0.702527c-5.815388,-1.93195 -10.433489,-6.674008 -16.077836,-9.132853c-5.473306,-2.283213 -10.433489,-2.634477 -15.222632,-1.580686c-0.171041,-4.215163 -3.249775,-8.254694 -7.012673,-9.83538c-5.131224,-1.93195 -11.117653,-0.175632 -15.735754,2.810109c-3.420816,2.283213 -6.499551,5.444586 -10.433489,6.147113c-9.236204,1.580686 -15.051591,-9.659749 -23.090509,-14.577439c-11.459734,-7.025272 -26.340285,0.175632 -36.260652,9.308485c-21.03802,19.495129 -33.352958,19.670761 -57.811794,30.033037c-6.32851,2.634477 -41.049794,33.018777 -22.577387,35.126359c1.710408,0.175632 3.420816,-0.526895 4.960183,-0.878159c5.815388,-0.878159 11.117653,4.566427 12.485979,10.362276c1.368326,5.971481 -0.171041,12.118594 -1.881449,17.914443c4.960183,3.688268 11.972857,-0.351264 15.051591,-5.620217c3.078735,-5.268954 3.933939,-11.76733 7.012673,-17.036284c3.078735,-5.268954 10.433489,-9.132853 15.222632,-5.268954c-1.197286,3.688268 -2.394571,7.552167 -1.710408,11.416067c0.684163,3.863899 4.104979,7.376535 7.696836,6.84964c8.55204,-1.229423 6.841632,-19.143865 15.393673,-19.143865c4.618102,0 7.012673,5.620217 7.696836,10.362276c2.05249,0.878159 4.618102,0.351264 6.32851,-1.229423c-4.789143,5.268954 -8.55204,11.591698 -10.433489,18.441338c-2.565612,9.659749 -6.499551,27.39856 -13.683265,34.423831c-3.249775,3.161372 -8.209959,4.039531 -10.775571,7.727799c-1.197286,1.756318 -1.710408,3.688268 -2.223531,5.795849c-1.539367,6.322745 -2.565612,11.416067 -6.32851,15.982493c-2.907694,3.688268 -8.894122,3.688268 -8.038918,10.186644c0.513122,4.039531 4.27602,7.727799 2.736653,11.416067c-0.855204,2.107582 -3.249775,2.98574 -4.960183,4.390795c-3.933939,3.161372 -4.618102,9.83538 -1.539367,13.874912c-12.143897,5.268954 -15.051591,-10.537908 -24.116754,-10.186644c-8.55204,0.351264 -13.854306,17.914443 -20.695938,22.129606c-3.762898,2.283213 -8.209959,2.634477 -11.801816,5.093322c-3.591857,2.458845 -5.473306,8.605958 -1.710408,10.889171c2.907694,1.93195 6.670592,-0.351264 9.407245,-2.458845c2.736653,-2.107582 6.32851,-4.390795 9.407245,-2.810109c2.05249,1.229423 2.907694,3.863899 2.565612,6.322745c-0.342082,2.458845 -1.710408,4.566427 -3.078735,6.498376c-3.762898,5.444586 -28.563815,22.656501 -16.419918,30.3843c3.591857,2.283213 8.038918,0.526895 11.972857,-0.351264c5.986428,-1.405054 12.485979,-0.702527 18.130326,1.756318c2.05249,8.605958 -5.302265,18.090075 -13.854306,18.090075c-4.618102,0 -10.433489,-2.107582 -13.512224,1.580686c-3.591857,4.215163 0.855204,10.186644 -2.05249,14.226175c-2.05249,2.98574 -8.723081,2.458845 -11.288693,7.200904c-2.394571,4.215163 -2.907694,9.308485 -2.736653,14.226175c0.171041,6.84964 1.881449,14.050543 5.815388,19.495129c3.762898,5.093322 9.920367,8.430326 16.077836,7.903431c-5.131224,6.147113 -8.55204,15.63123 -19.498652,19.143865c-5.644347,1.756318 -11.630775,-0.351264 -17.617203,0.351264c-13.854306,1.405054 -21.722183,21.251447 -12.828061,32.140618c1.539367,1.93195 3.420816,3.688268 4.27602,5.971481c1.539367,4.390795 -1.197286,9.132853 -1.539367,13.874912c-0.513122,7.200904 4.960183,13.348016 10.091408,18.265706c10.433489,10.362276 23.26155,21.427079 37.457937,18.265706c7.867877,-1.756318 16.077836,-7.903431 22.919468,-3.688268c2.565612,1.580686 4.27602,4.215163 7.012673,5.268954c7.183714,3.161372 16.590959,-5.795849 22.577387,-0.702527c2.394571,2.107582 3.420816,5.971481 6.32851,7.200904c1.881449,0.702527 4.104979,0 6.157469,-0.526895c10.262449,-3.161372 21.380101,-3.863899 31.984631,-1.93195c0.513122,3.337004 1.197286,6.498376 1.710408,9.83538c-9.578285,-0.878159 -9.920367,16.68502 -18.814489,20.197656c-4.789143,1.93195 -10.433489,-1.053791 -15.222632,1.053791c-4.104979,1.756318 -5.986428,6.674008 -5.644347,11.240435c0.342082,4.390795 2.394571,8.605958 4.447061,12.469857c11.117653,-2.810109 24.800917,-5.093322 32.668795,3.688268c11.459734,12.821121 -2.736653,24.237187 -10.091408,33.018777c-11.288693,13.523648 -20.011775,29.330509 -24.971958,46.366793c-5.131224,17.563179 -7.012673,37.760835 -20.353856,50.055061c-4.789143,4.566427 -10.946612,7.552167 -15.051591,12.996753c-3.933939,5.268954 -4.447061,14.401807 1.197286,17.738811c1.881449,1.053791 4.104979,1.405054 5.986428,2.283213c9.065163,4.039531 8.894122,17.036284 7.354755,26.871664c3.249775,1.053791 7.012673,0.526895 9.749326,-1.756318c-1.026245,12.821121 0.855204,25.993505 5.815388,37.936467c7.696836,-5.093322 17.788244,-4.390795 26.853407,-5.971481c9.065163,-1.405054 19.327611,-7.200904 19.669693,-16.68502c0.171041,-4.566427 -2.223531,-9.132853 -2.394571,-13.69928c-0.513122,-14.226175 16.590959,-20.373288 27.879652,-28.45235c8.55204,-6.147113 14.88055,-15.455598 17.617203,-25.642242c1.539367,-5.795849 2.05249,-12.118594 4.960183,-17.211916c2.394571,-4.215163 6.157469,-7.376535 9.749326,-10.537908c18.643448,-15.806861 36.431692,-30.208668 51.312243,-49.703797c2.223531,-4.91769 9.749326,0 10.433489,5.444586c0.684163,5.268954 -0.855204,11.591698 2.907694,15.455598c6.157469,0.526895 12.485979,-2.810109 15.393673,-8.430326c-4.618102,-3.161372 -5.473306,-10.713539 -1.710408,-14.928702c3.762898,-4.215163 11.117653,-4.215163 14.70951,0.175632c0.684163,-7.727799 13.341183,-6.498376 17.959285,-12.821121c3.762898,-4.91769 3.762898,-15.279966 9.749326,-14.226175c2.394571,0.526895 3.933939,2.98574 5.473306,4.91769c5.644347,7.025272 16.761999,8.430326 23.774672,2.810109c2.907694,-2.283213 5.131224,-5.444586 7.525796,-8.254694c6.157469,-6.674008 14.367428,-10.889171 21.380101,-16.509389c30.103182,-23.53466 -3.078735,-41.975999 -9.065163,-66.740081c-7.354755,-30.735564 24.458836,-50.581956 25.142999,-80.614993c0.171041,-5.093322 -0.684163,-10.362276 0,-15.455598c1.197286,-9.308485 7.525796,-16.860652 11.972857,-24.939715c4.447061,-8.254694 6.841632,-19.143865 1.026245,-26.344769c-15.735754,9.659749 -33.86608,12.469857 -51.654324,10.011012c-16.761999,-2.283213 -32.839835,-2.458845 -49.772876,-4.742058c-10.262449,-1.405054 -19.327611,-7.552167 -29.247978,-10.011012c-10.433489,-2.458845 -21.380101,-0.878159 -31.984631,1.053791c-1.710408,-1.93195 -4.27602,-2.98574 -6.670592,-2.810109c-1.026245,-5.620217 -0.684163,-11.416067 0.513122,-17.036284c2.565612,-10.537908 -14.367428,-10.537908 -18.98553,-18.792602c-4.618102,-7.903431 1.539367,-17.036284 5.644347,-23.710292c-15.051591,-0.175632 -11.972857,-16.509389 -1.881449,-21.778342c13.170142,-6.84964 25.827162,3.512636 39.339386,1.93195c4.960183,-0.526895 9.749326,-2.810109 14.196387,-5.093322c3.762898,-1.756318 8.55204,-3.512636 13.341183,-5.444586c1.197286,0.175632 2.394571,0.351264 3.591857,0.702527c13.854306,4.390795 12.143897,25.115346 19.327611,38.112099c8.381,14.753071 29.761101,19.495129 34.379203,35.828886c1.368326,4.91769 1.368326,11.064803 5.815388,13.69928c3.420816,1.93195 16.077836,0.702527 18.814489,-2.283213c1.368326,-1.405054 2.05249,-3.688268 3.933939,-4.039531c2.394571,-0.526895 4.104979,2.458845 6.32851,3.337004c2.394571,1.053791 5.473306,-0.702527 5.986428,-3.161372c0.513122,-2.458845 -0.684163,-5.795849 1.539367,-7.025272c0.684163,-0.351264 1.368326,-0.351264 2.05249,-0.351264c3.591857,0 7.354755,0.175632 10.946612,0.175632c0.855204,0 1.881449,0 2.565612,-0.526895c0.855204,-0.702527 1.026245,-1.93195 1.368326,-2.98574c0.684163,-2.458845 2.05249,-4.742058 3.933939,-6.322745c1.026245,-0.878159 2.394571,-1.756318 2.736653,-2.98574c0.855204,-2.810109 -2.736653,-4.91769 -3.591857,-7.727799c-1.197286,-4.215163 3.591857,-7.200904 3.933939,-11.064803c0.342082,-3.863899 -2.05249,-8.605958 -4.447061,-11.591698c-4.960183,-6.147113 -9.236204,-5.268954 -16.419918,-6.674008c-8.209959,-1.756318 -15.906795,-5.795849 -21.722183,-11.942962c-1.881449,-2.107582 -12.828061,-17.211916 -9.407245,-20.022024c7.012673,-5.971481 17.617203,-1.580686 24.629877,4.215163c3.933939,3.337004 8.55204,8.957221 13.341183,10.889171c5.131224,2.107582 11.630775,0.702527 17.275122,1.580686c1.881449,0.351264 3.762898,0.702527 5.644347,0c2.223531,-0.878159 3.933939,-3.512636 6.32851,-3.512636c2.736653,0 4.27602,2.98574 5.473306,5.444586c1.197286,2.458845 3.591857,5.093322 6.157469,4.039531c2.05249,-0.878159 2.565612,-3.512636 4.27602,-4.742058c1.710408,-1.229423 4.27602,-0.702527 5.302265,0.878159c0.513122,0.878159 0.684163,1.93195 1.197286,2.810109c2.736653,5.620217 15.564714,3.161372 20.866979,5.620217c4.27602,2.107582 7.867877,5.971481 8.381,10.713539c0.342082,3.863899 -1.197286,7.903431 0.171041,11.591698c1.539367,4.215163 6.157469,8.079062 8.381,12.645489c3.249775,7.025272 4.789143,15.455598 5.473306,23.183397c0.684163,6.322745 3.420816,27.749823 9.065163,31.086827c3.762898,2.107582 13.341183,-1.053791 13.341183,-6.498376c6.499551,-16.509389 0.171041,-26.871664 11.117653,-43.029789c2.394571,-3.512636 5.473306,-7.552167 9.578285,-7.727799c4.27602,-0.175632 7.525796,6.498376 3.933939,8.430326c7.867877,2.458845 13.854306,-7.025272 17.617203,-14.577439c3.762898,-7.552167 12.828061,-15.455598 18.98553,-10.011012c2.736653,4.390795 3.933939,9.659749 3.591857,14.753071c5.644347,0.175632 11.288693,0.175632 16.93304,1.053791c2.736653,0.351264 4.960183,6.674008 7.012673,15.806861l-2.05249,1.053791c1.197286,4.039531 2.565612,7.903431 3.933939,11.76733c0.171041,0 0.171041,-0.175632 0.342082,-0.175632c0.342082,2.458845 0.684163,5.093322 1.026245,7.727799c-0.513122,-2.283213 -1.026245,-4.566427 -1.710408,-6.84964c-4.789143,5.795849 1.026245,11.064803 1.539367,17.387547c0.342082,4.91769 -2.223531,9.659749 -2.05249,14.753071c0.513122,12.469857 10.946612,21.778342 11.288693,34.2482c0.171041,4.215163 -0.684163,9.484117 2.565612,12.118594c0.684163,0.526895 1.539367,0.878159 2.05249,1.580686c2.736653,2.810109 -1.197286,7.376535 -1.197286,11.416067c0.171041,3.161372 2.736653,5.444586 4.618102,7.727799c3.762898,4.390795 6.32851,10.011012 6.841632,15.806861c0.342082,2.458845 0.342082,5.444586 2.394571,6.84964c1.368326,0.878159 3.249775,0.878159 4.789143,1.053791c6.32851,1.229423 11.972857,9.308485 17.617203,6.147113c2.736653,-1.405054 3.933939,-4.91769 3.249775,-8.079062c-0.684163,-2.98574 -2.736653,-5.444586 -5.302265,-7.376535c-1.368326,-1.053791 -2.907694,-1.93195 -3.591857,-3.337004c-0.684163,-1.229423 -0.684163,-2.810109 -0.855204,-4.390795c-0.171041,-4.91769 -2.223531,-9.308485 -2.05249,-14.050543c0.171041,-2.98574 4.960183,-11.942962 4.618102,-13.523648c-0.855204,-2.810109 -3.420816,-4.91769 -6.32851,-5.093322c1.026245,-3.863899 2.05249,-8.254694 0.342082,-11.76733c-0.855204,-1.93195 -2.394571,-3.337004 -3.933939,-4.742058c-9.749326,-9.132853 -11.459734,-16.158125 -10.946612,-29.681773c0.342082,-6.322745 1.539367,-21.075815 11.288693,-15.806861c1.881449,1.053791 2.907694,3.161372 4.618102,4.390795c1.881449,1.405054 4.27602,1.756318 6.499551,1.756318c13.170142,-0.175632 24.287795,-13.523648 23.774672,-27.047296c-0.513122,-13.523648 -10.775571,-25.46661 -23.432591,-29.330509l-12.485979,6.147113c-1.881449,-2.98574 -2.394571,-6.322745 -0.513122,-8.957221c2.05249,-2.810109 5.473306,-3.863899 8.381,-5.620217c0.855204,1.053791 1.368326,2.634477 1.539367,4.039531c2.565612,0.526895 4.447061,-2.458845 5.473306,-4.91769s3.078735,-5.444586 5.473306,-4.742058c1.368326,0.351264 2.223531,1.756318 3.591857,2.107582c2.394571,0.702527 4.27602,-2.107582 6.32851,-3.512636c5.473306,-3.512636 13.512224,1.229423 18.814489,-2.810109c1.881449,-1.405054 2.736653,-4.039531 3.420816,-6.498376c5.644347,-21.602711 3.078735,-46.366793 -15.564714,-60.241705c0.513122,-0.878159 1.197286,-1.756318 1.881449,-2.458845l-3.933939,1.93195c2.223531,-1.93195 4.618102,-3.688268 7.354755,-4.91769c3.420816,-2.634477 7.867877,-4.390795 12.143897,-4.390795l-2.394571,1.229423c2.223531,-0.351264 4.447061,-0.526895 6.670592,-0.526895c1.710408,0.526895 3.249775,1.229423 4.789143,2.458845c2.907694,2.458845 4.618102,5.971481 6.157469,9.484117c4.104979,9.308485 8.209959,18.61697 12.485979,27.925455c3.078735,6.84964 6.32851,14.050543 12.314938,18.090075c5.986428,4.215163 15.735754,3.863899 19.327611,-2.634477c-4.104979,-2.634477 -8.209959,-5.268954 -12.314938,-7.727799c0,-13.523648 25.485081,-16.509389 23.26155,-29.681773c-3.420816,7.025272 -15.393673,6.147113 -17.788244,-1.229423c-0.342082,-1.053791 -0.513122,-2.283213 -0.513122,-3.337004c6.670592,0.351264 13.854306,-5.971481 14.88055,-13.172384c1.368326,-9.308485 -3.762898,-18.090075 -9.407245,-25.46661c-5.644347,-7.376535 -12.314938,-14.226175 -15.051591,-23.183397c-1.710408,-5.795849 -1.710408,-12.294226 -4.104979,-17.914443c-6.670592,-14.753071 -27.366529,-16.860652 -36.089611,-30.3843c18.472407,-16.333757 45.496855,-21.953974 68.587365,-13.874912c-5.644347,17.563179 12.65702,37.936467 30.103182,33.545672c1.026245,-8.78159 -6.32851,-17.387547 -14.88055,-17.738811c0.855204,-6.674008 7.696836,-10.537908 14.025346,-12.645489c6.32851,-1.93195 13.341183,-3.688268 17.275122,-9.132853c3.591857,-4.91769 0.855204,-14.050543 -4.447061,-14.401807c7.696836,-0.351264 15.222632,-0.702527 22.919468,-1.053791c1.710408,-6.498376 -3.078735,-11.942962 -8.55204,-13.69928zm-646.192178,7.727799c1.197286,-1.580686 3.078735,-2.107582 4.960183,-2.634477c7.183714,-1.93195 14.367428,-3.863899 21.551142,-5.795849c-6.841632,6.322745 -13.170142,13.523648 -20.011775,17.738811c-2.223531,1.405054 -4.618102,2.634477 -7.183714,3.688268c0.171041,-0.878159 0.342082,-1.756318 0.171041,-2.634477c0,-3.512636 -1.539367,-7.552167 0.513122,-10.362276zm-28.905897,275.215019c3.078735,3.512636 -2.565612,8.78159 -7.183714,8.079062c-4.618102,-0.878159 -8.381,-4.390795 -13.170142,-4.742058c-8.209959,-0.526895 -11.972857,9.659749 -9.065163,16.333757c-16.077836,-0.175632 -22.235305,4.215163 -34.037121,14.753071c-9.920367,8.957221 -14.538469,9.132853 -26.682366,4.039531c-3.762898,-1.580686 -6.841632,-2.458845 -9.578285,-2.458845c0.342082,-0.175632 0.684163,-0.526895 1.026245,-0.702527c21.380101,-16.158125 45.496855,-40.395312 73.547548,-40.395312c6.32851,0.702527 12.314938,3.161372 18.643448,3.161372c4.447061,0 9.407245,-1.405054 13.683265,-0.702527c-2.223531,1.756318 -4.447061,3.337004 -7.183714,2.634477zm5.644347,-240.439924c-4.618102,2.283213 -9.065163,5.620217 -12.65702,9.484117c-4.789143,-3.161372 -7.183714,-9.83538 -5.473306,-15.455598c1.197286,-4.039531 3.933939,-7.376535 6.32851,-10.713539c3.762898,-5.444586 6.499551,-12.294226 4.960183,-18.968234c-1.539367,-6.498376 -8.894122,-11.76733 -14.88055,-9.132853c1.539367,-5.093322 7.696836,-7.552167 12.999102,-6.84964s9.749326,4.215163 14.025346,7.376535c-0.513122,9.659749 0.855204,19.495129 4.104979,28.45235c-5.473306,3.512636 -9.578285,7.903431 -9.407245,15.806861zm60.719487,253.436677c-8.55204,2.283213 -16.93304,5.093322 -24.800917,9.132853c-1.539367,-8.079062 -3.420816,-16.509389 -8.55204,-23.007765c-3.420816,-4.390795 -8.894122,-7.376535 -14.196387,-7.376535c-3.078735,-7.376535 -6.841632,-14.226175 -5.131224,-14.753071c12.65702,-3.688268 26.853407,10.362276 23.432591,23.53466c6.157469,0.351264 12.485979,-0.878159 17.959285,-3.863899c5.815388,3.337004 10.091408,9.484117 11.288693,16.333757zm7.867877,-230.604544c-1.197286,0.878159 -2.565612,1.756318 -3.933939,2.458845c-2.565612,-2.98574 -5.131224,-6.147113 -7.696836,-9.132853c1.026245,-4.742058 0.855204,-9.83538 -0.171041,-14.577439c-1.026245,-4.039531 -2.565612,-7.903431 -2.394571,-12.118594c0.513122,-12.294226 15.222632,-17.387547 27.024448,-18.968234c1.368326,8.430326 1.197286,17.211916 -0.513122,25.46661c4.27602,1.405054 8.55204,2.810109 12.999102,4.215163c-7.696836,8.78159 -16.077836,16.333757 -25.31404,22.656501zm74.915874,103.447126c-1.710408,-2.634477 -3.591857,-5.268954 -5.302265,-7.727799c2.05249,1.053791 3.933939,2.283213 5.986428,3.337004c-0.171041,1.405054 -0.342082,2.98574 -0.684163,4.390795zm9.920367,-38.638994c-7.867877,4.91769 -17.959285,0.351264 -27.195489,0.351264c-2.907694,0 -5.815388,1.229423 -8.381,2.98574c-5.986428,-7.903431 -12.143897,-15.63123 -18.301367,-23.359028c6.157469,-4.742058 14.538469,-6.322745 21.893224,-3.688268c5.302265,1.93195 9.749326,5.795849 15.222632,7.376535c5.473306,1.580686 12.65702,-0.702527 13.683265,-6.322745c3.591857,7.025272 4.618102,15.104334 3.078735,22.656501zm424.010166,-9.484117c3.933939,2.634477 7.012673,6.147113 9.407245,10.186644c-1.710408,-1.580686 -3.591857,-3.161372 -5.473306,-4.742058l-12.999102,6.322745c2.907694,-3.863899 5.986428,-7.903431 9.065163,-11.76733z" class="st24"/>
    </g>
    <path stroke="null" id="svg_133" d="m1626.988626,874.436377c8.209959,9.83538 16.93304,22.305238 12.999102,34.599463c-1.368326,4.215163 -4.104979,8.254694 -3.249775,12.645489c1.026245,5.268954 6.670592,7.727799 9.920367,11.942962c6.157469,7.552167 2.565612,20.022024 -5.131224,25.993505c-7.696836,5.795849 -18.130326,6.498376 -27.708611,5.444586c-28.905897,-3.337004 -20.011775,18.090075 -19.327611,40.219681c0.171041,3.161372 1.197286,7.376535 4.27602,7.376535c1.710408,0 2.907694,-1.405054 3.933939,-2.634477c4.618102,-5.620217 8.209959,-12.118594 10.775571,-18.968234c4.27602,4.566427 10.775571,6.84964 16.93304,6.147113c0,-7.376535 2.05249,-17.036284 9.065163,-17.563179c2.223531,-0.175632 4.960183,0.526895 6.32851,-1.229423c1.026245,-1.405054 0.513122,-3.337004 0.513122,-5.093322c0.171041,-7.727799 10.60453,-10.011012 14.88055,-16.333757c1.710408,-2.458845 2.223531,-5.620217 2.736653,-8.430326c2.05249,-10.889171 -2.05249,-44.610475 1.197286,-46.366793c3.591857,-1.93195 8.038918,-2.98574 10.60453,-6.147113c2.394571,-3.161372 2.223531,-8.254694 -0.513122,-11.240435s-7.696836,-3.337004 -10.946612,-1.053791c3.420816,-4.039531 -0.855204,-10.537908 -5.815388,-12.118594c-4.960183,-1.580686 -10.433489,-0.526895 -15.393673,-1.756318c-13.683265,-3.512636 -19.840734,-27.222928 -33.695039,-27.749823c-21.380101,-1.229423 14.196387,28.276719 17.617203,32.31625z" class="st24"/>
    <path stroke="null" id="svg_134" d="m1796.832149,1364.800342c0.684163,-1.229423 2.736653,-0.878159 3.249775,0.351264c-2.394571,2.98574 -4.789143,5.971481 -5.644347,9.659749c-1.026245,3.688268 -0.171041,8.079062 2.736653,10.186644c1.026245,0.702527 2.223531,1.229423 3.078735,2.107582c2.05249,2.458845 -0.171041,6.322745 0.684163,9.308485c0.855204,3.161372 5.644347,4.390795 7.867877,1.93195c2.223531,-2.458845 0.855204,-7.025272 -2.223531,-7.903431c4.27602,-1.053791 6.841632,-6.147113 6.32851,-10.713539c-0.342082,-4.566427 -3.078735,-8.430326 -5.986428,-11.942962c-2.05249,-2.458845 -5.815388,-4.91769 -8.209959,-2.634477" class="st24"/>
    <path stroke="null" id="svg_135" d="m1589.87277,1150.705187c0.855204,8.78159 1.881449,17.738811 2.736653,26.520401c0.342082,2.634477 0.513122,5.268954 2.05249,7.552167s4.447061,3.512636 6.670592,2.283213c-1.026245,-5.620217 -0.513122,-11.942962 2.736653,-16.68502c2.907694,-3.863899 7.867877,-8.430326 5.131224,-12.645489c-3.591857,-5.620217 -15.051591,1.580686 -17.959285,-4.566427c-0.684163,-1.405054 -2.05249,-3.688268 -3.078735,-2.458845" class="st24"/>
    <path stroke="null" id="svg_136" d="m1552.585874,1213.405737c-3.420816,1.229423 -5.644347,4.91769 -5.644347,8.605958c0.171041,3.688268 2.736653,7.200904 6.157469,8.254694c1.197286,-2.810109 1.710408,-6.147113 1.197286,-9.132853c1.539367,-0.175632 2.907694,-0.878159 3.933939,-2.107582c-1.368326,-1.756318 -2.736653,-3.512636 -4.27602,-5.444586" class="st24"/>
    <path stroke="null" id="svg_137" d="m1600.819382,1202.692198c-1.368326,3.161372 0.342082,7.376535 3.420816,8.605958c5.815388,2.283213 12.314938,-4.91769 18.130326,-2.283213c0,-1.756318 0,-3.688268 0,-5.444586c-3.420816,-0.351264 -5.986428,-2.98574 -8.894122,-4.91769c-2.907694,-1.93195 -7.354755,-2.634477 -9.236204,0.351264" class="st24"/>
    <path stroke="null" id="svg_138" d="m726.458765,865.127892c-2.05249,-2.107582 -4.960183,-2.634477 -7.867877,-3.337004c-7.183714,-1.405054 -14.196387,-2.98574 -21.380101,-4.390795c4.27602,-4.390795 0,-11.76733 -4.27602,-16.333757c-8.209959,-8.605958 -16.248877,-17.036284 -24.458836,-25.642242c-1.710408,-1.93195 -3.762898,-3.863899 -6.32851,-4.215163c-5.473306,-0.702527 -8.55204,5.971481 -11.117653,10.889171c-3.933939,7.727799 -12.314938,14.577439 -20.695938,12.294226c-3.933939,-1.053791 -7.183714,-3.863899 -10.775571,-5.971481c-3.078735,-1.580686 -6.499551,-2.634477 -10.091408,-2.810109c-3.762898,-5.620217 -10.433489,-10.011012 -15.051591,-5.795849c0.342082,1.580686 0.855204,3.337004 1.026245,5.093322c-2.394571,3.688268 -2.565612,8.079062 -2.394571,12.645489c-1.881449,2.283213 -4.618102,3.688268 -7.525796,3.161372c1.710408,-5.444586 3.420816,-11.240435 2.565612,-16.860652c-1.026245,-5.620217 -5.815388,-11.064803 -11.459734,-10.537908c-5.302265,0.526895 -8.723081,5.620217 -11.459734,10.362276c-6.670592,11.416067 -13.512224,22.832133 -16.419918,35.828886c-1.197286,4.91769 -1.710408,10.011012 -3.933939,14.401807c-2.223531,4.390795 -6.670592,8.254694 -11.459734,7.903431c3.591857,-15.63123 -8.038918,-33.194409 -23.603632,-35.653254c-1.197286,-0.175632 -2.565612,-0.351264 -3.420816,-1.053791c-1.368326,-1.229423 -1.368326,-3.512636 -1.368326,-5.444586c0.513122,-12.118594 0.171041,-24.237187 -1.197286,-36.355781c9.065163,-0.526895 14.538469,-13.523648 23.603632,-12.469857c5.131224,0.702527 8.381,5.620217 11.972857,9.308485c3.762898,3.512636 10.775571,5.444586 13.341183,0.878159c2.05249,-3.512636 1.710408,-10.362276 5.473306,-9.484117c1.026245,0.175632 1.710408,1.053791 2.565612,1.756318c5.644347,4.390795 15.051591,-2.810109 12.485979,-9.659749c-0.855204,-2.107582 -2.394571,-3.863899 -3.078735,-6.147113c-1.881449,-6.674008 5.644347,-11.76733 11.972857,-14.401807c2.394571,2.107582 5.644347,3.337004 8.894122,3.161372c6.841632,0.526895 7.867877,11.064803 4.104979,17.036284s-10.262449,10.362276 -11.801816,17.211916c4.104979,-4.91769 11.630775,-6.498376 17.275122,-3.337004c3.762898,2.107582 6.32851,5.795849 9.920367,7.903431c3.591857,2.283213 9.236204,2.458845 11.117653,-1.405054c5.644347,-11.416067 5.815388,-16.333757 20.353856,-17.036284c0,-2.810109 -6.841632,-20.900183 -7.183714,-20.900183c-7.354755,-1.405054 -14.70951,-2.98574 -22.064264,-4.390795c-1.026245,-1.756318 0.855204,-3.863899 1.368326,-5.795849c1.710408,-5.093322 -4.960183,-8.605958 -10.262449,-9.132853c-13.170142,-1.053791 -35.234407,-23.183397 -46.181019,-2.283213c-2.736653,-0.878159 -4.447061,-2.634477 -6.499551,-4.742058c-1.368326,3.863899 -6.670592,3.161372 -10.775571,3.161372c-6.499551,0 -12.65702,4.390795 -16.419918,9.83538c-3.762898,5.444586 -5.815388,12.118594 -7.867877,18.441338c-2.736653,0 -5.473306,0 -8.209959,-0.175632c2.223531,-4.039531 3.249775,-8.78159 3.078735,-13.523648c-6.32851,1.93195 -12.485979,3.688268 -18.814489,5.620217c-2.394571,-3.512636 -4.789143,-7.200904 -5.473306,-11.416067c-0.855204,-4.215163 0.513122,-9.132853 4.104979,-11.416067c2.05249,-1.229423 4.447061,-1.405054 6.670592,-2.634477c2.223531,-1.229423 3.078735,-3.337004 2.223531,-5.444586c-9.578285,2.458845 -18.130326,-9.659749 -26.682366,-2.283213c-4.27602,3.688268 -5.986428,9.659749 -7.354755,15.104334c-1.539367,0.702527 -3.249775,-1.229423 -3.591857,-2.98574c-0.342082,-1.756318 -0.171041,-3.863899 -1.197286,-5.268954c-1.368326,-1.756318 -4.447061,-1.405054 -5.986428,0.175632c-1.710408,1.580686 -2.394571,3.863899 -3.078735,6.147113c1.197286,-3.863899 -41.733957,-8.605958 -46.181019,-0.175632c-2.223531,4.039531 1.026245,19.670761 6.32851,21.602711c4.447061,1.580686 9.236204,0.526895 13.683265,-0.526895c4.618102,20.373288 -58.495957,13.69928 -68.587365,10.537908c-4.27602,-1.405054 -8.55204,-3.512636 -12.999102,-2.810109c-5.473306,0.878159 -9.407245,5.620217 -14.538469,7.552167c-5.815388,2.107582 -12.314938,0.175632 -17.617203,-2.810109c-5.302265,-3.161372 -9.920367,-7.376535 -15.222632,-10.713539c-20.011775,-12.645489 -34.379203,-2.634477 -54.219937,0c-4.789143,0.702527 -13.341183,-3.161372 -17.617203,-0.351264c-1.197286,0.702527 -9.920367,12.118594 -5.302265,12.118594c-6.841632,-0.175632 -23.26155,-5.444586 -31.300468,-1.580686c-3.591857,1.756318 -5.473306,5.268954 -4.104979,11.76733c9.749326,-1.229423 21.03802,6.84964 18.643448,17.914443c-5.302265,-1.229423 -10.775571,0.351264 -16.077836,1.756318c-4.960183,1.405054 -9.920367,2.810109 -13.683265,6.147113c-1.368326,1.229423 -2.394571,2.634477 -3.249775,4.390795c-0.171041,0 -0.171041,0 -0.342082,0c0,0.351264 0,0.526895 0,0.878159c-1.197286,2.810109 -1.197286,6.147113 0.342082,8.78159c1.539367,0 3.078735,-1.053791 3.933939,-2.458845c1.881449,1.053791 4.104979,1.580686 6.157469,1.405054c5.131224,-0.526895 9.236204,-4.039531 13.683265,-6.498376c4.447061,-2.634477 10.091408,-4.390795 14.538469,-1.756318c2.223531,1.229423 4.447061,3.688268 6.670592,2.634477c2.05249,-0.878159 2.565612,-4.039531 4.789143,-4.742058c1.881449,-0.702527 3.762898,0.878159 5.644347,1.580686c5.473306,1.756318 10.262449,-4.039531 15.564714,-3.161372c6.670592,0.878159 8.55204,7.200904 16.248877,7.025272c9.578285,0 20.524897,-8.079062 29.247978,-1.405054c10.091408,7.903431 3.591857,31.789355 2.736653,42.502894c-0.171041,2.634477 -0.513122,5.444586 -2.05249,7.376535c-2.565612,3.337004 -7.696836,3.337004 -10.775571,6.322745c-3.591857,3.337004 -2.907694,9.659749 -0.171041,13.523648c2.907694,4.039531 7.354755,6.322745 11.630775,8.430326c1.026245,2.98574 -3.933939,2.98574 -6.841632,2.810109c-6.499551,-0.351264 -10.433489,9.659749 -5.815388,14.050543c-4.447061,-4.215163 -9.749326,21.953974 -9.578285,24.412819c1.026245,12.294226 10.946612,20.900183 13.683265,32.140618c2.736653,11.416067 -1.197286,21.427079 -6.499551,32.667513c-1.710408,3.512636 -3.420816,8.430326 -0.513122,10.889171c1.710408,1.580686 4.618102,1.405054 6.32851,2.98574c2.907694,2.810109 0.513122,7.727799 -2.223531,10.889171c-2.736653,2.98574 -5.815388,7.200904 -3.933939,10.713539c0.855204,1.580686 2.565612,2.458845 3.933939,3.688268c3.933939,3.512636 4.789143,10.011012 1.881449,14.401807c3.078735,1.053791 6.157469,2.283213 9.236204,3.337004c3.078735,-2.810109 2.907694,-7.903431 1.539367,-11.942962c-1.368326,-4.039531 -3.762898,-7.727799 -4.27602,-11.942962c-0.684163,-5.620217 2.05249,-11.064803 2.907694,-16.68502c1.368326,-8.78159 -1.197286,-19.846393 5.815388,-24.764083c2.223531,2.634477 5.473306,4.215163 8.723081,4.566427c0.513122,0 2.05249,-6.322745 2.223531,-7.025272c-1.368326,22.480869 8.723081,58.134123 23.945713,74.819144c3.420816,3.688268 7.354755,7.025272 12.143897,8.254694c4.789143,1.229423 10.433489,-0.351264 12.999102,-4.742058c0.342082,-0.526895 0.513122,-1.053791 0.855204,-1.580686c2.736653,0.175632 5.302265,0.175632 8.038918,0.351264c1.539367,2.810109 2.907694,5.620217 4.447061,8.430326c0.855204,1.756318 1.881449,3.512636 3.591857,4.566427c3.933939,2.458845 8.723081,-0.702527 11.972857,-4.039531c0.855204,-0.878159 1.710408,-1.756318 2.736653,-2.634477c0.684163,0.351264 1.197286,0.878159 1.881449,1.229423c2.907694,7.376535 6.499551,13.523648 12.828061,18.61697c5.986428,4.742058 12.828061,0.878159 20.353856,8.605958c4.960183,5.268954 5.815388,16.158125 9.407245,22.480869c14.88055,25.993505 55.930345,13.69928 80.047099,30.911196c4.104979,2.98574 7.867877,7.200904 8.55204,12.469857c2.05249,17.036284 -22.748428,41.09784 -34.037121,50.757588c-1.539367,1.229423 -3.078735,2.634477 -4.104979,4.390795c-2.223531,4.039531 -0.171041,9.83538 4.104979,11.416067c3.420816,1.229423 8.894122,1.229423 9.065163,5.093322c0,1.229423 -0.513122,2.107582 -1.197286,3.161372c-1.368326,2.458845 -2.907694,4.742058 -4.27602,7.200904c-2.394571,3.863899 -4.789143,8.079062 -4.789143,12.821121c0,4.566427 3.249775,9.659749 7.696836,9.484117c2.907694,0 5.473306,-2.107582 7.525796,-4.390795c5.986428,-6.147113 10.775571,-13.348016 14.196387,-21.251447c2.394571,-5.444586 4.27602,-11.76733 9.236204,-14.928702c4.960183,-3.161372 12.485979,-2.810109 15.735754,-7.727799c4.27602,-6.322745 -1.710408,-13.523648 -0.513122,-20.197656c1.197286,-6.322745 9.407245,-15.982493 14.196387,-19.670761c5.473306,-4.215163 12.314938,-5.971481 18.814489,-8.430326c17.275122,-6.674008 34.037121,-16.333757 46.694141,-30.3843c4.447061,-4.91769 4.447061,-9.308485 0,-14.577439c-2.05249,-2.458845 -5.302265,-4.039531 -8.381,-2.98574c-2.05249,0.702527 -4.27602,2.634477 -6.157469,1.405054c-0.855204,-0.526895 -1.197286,-1.229423 -1.710408,-2.107582c-2.736653,-5.444586 -4.789143,-11.240435 -5.986428,-17.387547c-0.171041,-1.229423 -0.342082,-2.810109 0.513122,-3.688268c0.513122,-0.526895 1.197286,-0.702527 2.05249,-0.702527c4.447061,-0.878159 8.894122,-1.580686 13.341183,-2.458845c-2.223531,-1.93195 -4.447061,-3.863899 -5.644347,-6.498376c-1.197286,-2.634477 -0.684163,-6.322745 1.881449,-7.727799c0.855204,-0.526895 1.881449,-0.702527 2.565612,-1.405054c0.855204,-0.878159 1.026245,-2.283213 1.026245,-3.512636c0.342082,-5.795849 0.684163,-11.416067 1.026245,-17.211916c0.171041,-2.458845 0.342082,-5.093322 -0.513122,-7.376535c-0.855204,-2.283213 -2.736653,-4.566427 -5.131224,-4.742058c-2.223531,-0.175632 -4.104979,1.229423 -5.986428,2.283213c-2.736653,1.756318 -14.538469,8.079062 -17.959285,6.322745c-5.473306,-2.810109 -3.078735,-9.308485 1.539367,-12.118594c1.197286,-0.702527 2.223531,-1.229423 3.591857,-1.756318l6.157469,4.566427c-1.539367,-2.634477 -0.855204,-5.971481 0.855204,-8.430326c0.684163,-0.526895 1.197286,-1.229423 1.710408,-1.756318c1.710408,-1.405054 3.933939,-2.283213 6.157469,-1.756318c0,-2.634477 0,-5.444586 0,-8.079062c-1.026245,0.351264 -2.223531,0.351264 -3.249775,0.175632c0,-4.215163 -1.710408,-8.430326 -4.960183,-11.064803c-7.183714,-0.351264 -14.538469,3.512636 -18.643448,9.659749c-0.684163,1.053791 -1.197286,1.93195 -1.881449,2.98574c-12.65702,0.351264 -15.222632,-37.23394 -4.447061,-41.800367c2.736653,-1.053791 6.670592,-1.229423 7.696836,-4.039531c1.539367,-4.566427 -7.183714,-8.430326 -4.960183,-12.821121c1.368326,-2.634477 5.302265,-2.107582 7.183714,-4.039531c3.078735,-3.161372 -1.368326,-7.376535 -3.420816,-11.76733c5.986428,-14.753071 13.341183,-31.086827 20.353856,-34.2482c6.32851,-2.810109 15.564714,-0.702527 18.814489,-6.84964c1.710408,-3.337004 0.513122,-7.376535 0.342082,-11.064803c-0.342082,-3.688268 1.368326,-8.430326 4.960183,-8.78159c4.447061,-0.351264 7.525796,6.674008 11.972857,5.444586c5.986428,-1.580686 5.131224,-14.928702 11.117653,-18.441338c8.723081,-5.093322 10.775571,2.107582 18.130326,0.878159c14.025346,-2.458845 21.551142,-16.509389 38.1421,-11.942962c7.012673,1.93195 14.367428,4.742058 21.20906,2.810109c7.012673,-1.580686 11.972857,-11.416067 6.841632,-16.509389zm-155.818177,175.631793c-0.171041,0.175632 -0.342082,0.175632 -0.513122,0.351264c-5.302265,3.688268 -7.696836,-0.351264 -8.381,-7.025272l8.894122,6.674008zm-210.893318,-15.279966c1.026245,-4.566427 2.736653,-9.132853 4.960183,-13.172384c2.736653,12.645489 7.354755,25.115346 12.143897,37.760835c-0.513122,0.175632 -1.026245,0.526895 -1.539367,0.702527c-11.288693,3.512636 -18.301367,-13.523648 -15.564714,-25.290978z" class="st24"/>
   </g>
  </g>
  <g id="svg_18">
   <path id="svg_19" d="m348.266626,1109.033321l-49.6,0l0,-25c0,-4.3 3.5,-7.8 7.8,-7.8l34,0c4.3,0 7.8,3.5 7.8,7.8l0,25z"/>
   <path id="svg_20" d="m358.166626,1336.833321l-343,0c-8.6,0 -15.6,-7 -15.6,-15.6l0,-189.9c0,-8.6 7,-15.6 15.6,-15.6l343,0c8.6,0 15.6,7 15.6,15.6l0,189.9c0,8.6 -7,15.6 -15.6,15.6z" class="st3"/>
   <path id="svg_21" d="m358.166626,1314.833321l-343,0c-8.6,0 -15.6,-7 -15.6,-15.6l0,-189.9c0,-8.6 7,-15.6 15.6,-15.6l343,0c8.6,0 15.6,7 15.6,15.6l0,189.9c0,8.6 -7,15.6 -15.6,15.6z" class="st4"/>
   <path id="svg_22" d="m358.166626,1288.833321l-343,0c-8.6,0 -15.6,-7 -15.6,-15.6l0,26c0,8.6 7,15.6 15.6,15.6l343,0c8.6,0 15.6,-7 15.6,-15.6l0,-26c0,8.6 -7,15.6 -15.6,15.6z" class="st5"/>
   <rect id="svg_23" height="123.3" width="374.2" class="st6" y="1145.933321" x="-0.433374"/>
   <circle id="svg_24" r="67.300003" cy="1204.833321" cx="186.666626" class="st7"/>
   <circle id="svg_25" r="38.400002" cy="1204.833321" cx="186.666626" class="st4"/>
   <circle id="svg_26" r="14.4" cy="1180.833321" cx="162.666626" class="st8"/>
   <circle id="svg_27" r="11.2" cy="1120.133321" cx="36.666626" class="st9"/>
   <rect id="svg_28" height="16.8" width="42.3" class="st6" y="1111.733321" x="305.966626"/>
  </g>
  <g id="svg_29">
   <polygon id="svg_30" points="1045.5332946777344,1679.36669921875 1046.8333435058594,1559.466796875 714.8333435058594,1555.966796875 712.5332946777344,1771.2667236328125 801.5332946777344,1772.166748046875 800.2333679199219,1892.0667724609375 1132.2333679199219,1895.666748046875 1134.5332946777344,1680.36669921875 " class="st3"/>
   <rect id="svg_31" height="215.3" width="332" class="st10" transform="matrix(0.9999,0.01072192,-0.01072192,0.9999,2.3603,-16.8785) " y="1539.104891" x="729.052389"/>
   <line id="svg_32" y2="1730.766748" x2="910.033344" y1="1548.566748" x1="912.033344" class="st11"/>
   <rect id="svg_33" height="45.6" width="45.6" class="st8" transform="matrix(0.9999,0.01072192,-0.01072192,0.9999,1.8181,-18.1779) " y="1572.804891" x="993.152389"/>
   <line id="svg_34" y2="1639.066748" x2="879.633344" y1="1637.666748" x1="749.933344" class="st11"/>
   <line id="svg_35" y2="1657.666748" x2="879.433344" y1="1656.266748" x1="749.733344" class="st11"/>
   <line id="svg_36" y2="1677.666748" x2="879.233344" y1="1676.266748" x1="749.533344" class="st11"/>
   <line id="svg_37" y2="1697.066748" x2="838.433344" y1="1696.166748" x1="749.233344" class="st11"/>
   <line id="svg_38" y2="1589.166748" x2="880.233344" y1="1588.566748" x1="823.533344" class="st11"/>
   <line id="svg_39" y2="1643.766748" x2="1022.833344" y1="1642.966748" x1="943.933344" class="st11"/>
   <line id="svg_40" y2="1662.166748" x2="1022.633344" y1="1661.366748" x1="943.733344" class="st11"/>
   <line id="svg_41" y2="1680.666748" x2="1022.433344" y1="1679.766748" x1="943.533344" class="st11"/>
   <line id="svg_42" y2="1699.066748" x2="1022.233344" y1="1698.266748" x1="943.333344" class="st11"/>
   <g id="svg_43">
    <rect id="svg_44" height="318.2" width="201.5" class="st12" transform="matrix(0.01072463,-0.9999,0.9999,0.01072463,1312.6725,1991.931) " y="-506.843703" x="127.193307"/>
    <path id="svg_45" d="m816.233344,1664.766748l304.3,3.3l-2,187.7l-304.3,-3.3l2,-187.7m-13.7,-14l-2.3,215.3l331.9,3.6l2.3,-215.3l-331.9,-3.6l0,0z" class="st8"/>
   </g>
   <ellipse id="svg_46" ry="31.4" rx="31.4" cy="-386.447611" cx="327.695109" class="st13" transform="matrix(0.01072192,-0.9999,0.9999,0.01072192,1450.0909,2053.436) "/>
   <polygon id="svg_47" points="1088.6333923339844,1815.7667236328125 888.9333190917969,1813.666748046875 989.8333435058594,1714.86669921875 " class="st14"/>
   <polygon id="svg_48" points="1031.7333679199219,1815.166748046875 832.0332946777344,1813.0667724609375 932.9333190917969,1714.2667236328125 " class="st15"/>
   <path id="svg_49" d="m815.133344,1750.166748l90,1c8.6,0.1 15.6,7.2 15.5,15.8l0,0c-0.1,8.6 -7.2,15.6 -15.8,15.5l-0.5,0c-8.4,-0.1 -15.3,6.6 -15.4,15l0,0c-0.1,8.4 6.6,15.3 15,15.4l214.9,2.3l-0.5,40.5l-304.4,-3.3l1.2,-102.2z" class="st16"/>
  </g>
  <g id="svg_50">
   <g id="svg_51" class="st3">
    <path id="svg_52" d="m1618.800031,308.066656c0,-3.4 2.7,-6.1 6.1,-6.1l15.7,0c1.8,0 3.2,-1.4 3.2,-3.2l0,-3.1l12.8,0l0,13.7l18.2,0c12.5,0 22.6,-10.1 22.6,-22.6l0,-22.3c0,-12.5 -10.1,-22.6 -22.6,-22.6l-18.2,0l0,13.7l-12.8,0l0,-2.9c0,-1.8 -1.4,-3.2 -3.2,-3.2l-21.8,0c-12.3,0 -22.3,10 -22.3,22.3l0,69.6l22.3,0l0,-33.3z"/>
    <path id="svg_53" d="m1772.900031,356.266656l-18.2,0l0,13.7l-12.8,0l0,-3.1c0,-1.8 -1.4,-3.2 -3.2,-3.2l-21.8,0l0,0c-12.3,0 -22.3,10 -22.3,22.3l0,69.6l8.3,0l0,176.4c-9.9,-20.2 -27.9,-37.5 -45,-48.9l-23.9,-15.9c-14.8,-9.8 -23.6,-26.3 -23.6,-44l0,-181.8l-7,0l0,181.7c0,20.1 10,38.7 26.7,49.9l23.9,15.9c21.7,14.4 44.7,38.6 48.9,65.4l0,6l0.6,0c0,0.8 0.1,1.7 0.1,2.5l0,177l7,0l0,-177c0,-3 -0.2,-6 -0.7,-9l0,-198.2l7,0l0,-33.3c0,-3.4 2.7,-6.1 6.1,-6.1l15.7,0c1.8,0 3.2,-1.4 3.2,-3.2l0,-3.1l12.8,0l0,13.8l18.2,0c12.5,0 22.6,-10.1 22.6,-22.6l0,-22.3c-0.1,-12.4 -10.2,-22.5 -22.6,-22.5z"/>
   </g>
   <path id="svg_54" d="m1674.800031,289.466656l-18.2,0l0,-67.4l18.2,0c12.5,0 22.6,10.1 22.6,22.6l0,22.3c0,12.4 -10.1,22.5 -22.6,22.5z" class="st4"/>
   <rect id="svg_55" height="40" width="12.8" class="st17" y="235.766656" x="1643.800031"/>
   <path id="svg_56" d="m1618.800031,229.466656l0,0c-12.3,0 -22.3,10 -22.3,22.3l0,69.6l22.3,0l0,-33.3c0,-3.4 2.7,-6.1 6.1,-6.1l15.7,0c1.8,0 3.2,-1.4 3.2,-3.2l0,-46.1c0,-1.8 -1.4,-3.2 -3.2,-3.2l-21.8,0z" class="st18"/>
   <path id="svg_57" d="m1606.800031,321.366656l0,181.7c0,18.9 9.4,36.5 25.2,47l23.9,15.9c25.7,17.1 51.1,45.9 51.1,76.8l0,177" class="st19"/>
   <line id="svg_58" y2="640.266656" x2="1706.300031" y1="435.566656" x1="1706.300031" class="st19"/>
   <path id="svg_59" d="m1772.900031,403.566656l-18.2,0l0,-67.4l18.2,0c12.5,0 22.6,10.1 22.6,22.6l0,22.3c-0.1,12.4 -10.2,22.5 -22.6,22.5z" class="st4"/>
   <rect id="svg_60" height="40" width="12.8" class="st17" y="349.866656" x="1741.900031"/>
   <path id="svg_61" d="m1716.900031,343.666656l0,0c-12.3,0 -22.3,10 -22.3,22.3l0,69.6l22.3,0l0,-33.3c0,-3.4 2.7,-6.1 6.1,-6.1l15.7,0c1.8,0 3.2,-1.4 3.2,-3.2l0,-46.1c0,-1.8 -1.4,-3.2 -3.2,-3.2l-21.8,0z" class="st18"/>
  </g>
  <g id="svg_62">
   <g id="svg_63">
    <circle id="svg_64" r="90.400002" cy="413.4" cx="1247.000046" class="st4"/>
   </g>
   <g id="svg_65">
    <path id="svg_66" d="m1247.000046,480.2c-48.9,0 -89.5,-35.1 -98.1,-81.5c-1.1,6 -1.7,12.1 -1.7,18.4c0,55.1 44.7,99.8 99.8,99.8s99.8,-44.7 99.8,-99.8c0,-6.3 -0.6,-12.4 -1.7,-18.4c-8.6,46.4 -49.2,81.5 -98.1,81.5z" class="st5"/>
   </g>
   <rect id="svg_67" height="17.9" width="23.8" class="st10" y="290.5" x="1235.100046"/>
   <g id="svg_68" class="st3">
    <circle id="svg_69" r="109" cy="441.4" cx="1247.000046"/>
   </g>
   <g id="svg_70">
    <path id="svg_71" d="m1247.000046,323.6c49.5,0 89.8,40.3 89.8,89.8s-40.3,89.8 -89.8,89.8s-89.8,-40.3 -89.8,-89.8s40.3,-89.8 89.8,-89.8m0,-19.2c-60.2,0 -109,48.8 -109,109c0,60.2 48.8,109 109,109s109,-48.8 109,-109c0,-60.2 -48.8,-109 -109,-109l0,0z" class="st8"/>
   </g>
   <path id="svg_72" d="m1259.600046,296.7l-25.2,0c-2.9,0 -5.2,-2.3 -5.2,-5.2l0,-8.2c0,-2.9 2.3,-5.2 5.2,-5.2l25.2,0c2.9,0 5.2,2.3 5.2,5.2l0,8.2c0,2.8 -2.3,5.2 -5.2,5.2z" class="st8"/>
   <polygon id="svg_73" points="1313.9000701904297,367.5 1253.1999969482422,420.9000244140625 1240.8000946044922,402.2999267578125 " class="st9"/>
   <polygon id="svg_74" points="1180.1000213623047,455.7000732421875 1253.1999969482422,420.9000244140625 1240.8000946044922,402.2999267578125 " class="st10"/>
   <line id="svg_75" y2="357.2" x2="1247.000046" y1="338.5" x1="1247.000046" class="st20"/>
   <line id="svg_76" y2="487.9" x2="1247.000046" y1="469.2" x1="1247.000046" class="st20"/>
   <line id="svg_77" y2="413.2" x2="1303.000046" y1="413.2" x1="1321.700046" class="st20"/>
   <line id="svg_78" y2="413.2" x2="1172.300046" y1="413.2" x1="1191.000046" class="st20"/>
   <g id="svg_79">
    <path id="svg_80" d="m1247.000046,421.9c-5.7,0 -10.3,-4.6 -10.3,-10.3s4.6,-10.3 10.3,-10.3s10.3,4.6 10.3,10.3s-4.6,10.3 -10.3,10.3z"/>
    <path id="svg_81" d="m1247.000046,404c4.2,0 7.7,3.4 7.7,7.7s-3.4,7.7 -7.7,7.7s-7.7,-3.4 -7.7,-7.7s3.5,-7.7 7.7,-7.7m0,-5.2c-7.1,0 -12.9,5.8 -12.9,12.9s5.8,12.9 12.9,12.9c7.1,0 12.9,-5.8 12.9,-12.9s-5.8,-12.9 -12.9,-12.9l0,0z" class="st6"/>
   </g>
  </g>
  <g id="svg_82">
   <path id="svg_83" d="m705.633313,580.7l-205.5,0c-6.7,0 -12.1,-5.4 -12.1,-12.1l0,-265.2c0,-6.7 5.4,-12.1 12.1,-12.1l205.5,0c6.7,0 12.1,5.4 12.1,12.1l0,265.2c0,6.7 -5.4,12.1 -12.1,12.1z" class="st3"/>
   <path id="svg_84" d="m705.633313,560.7l-205.5,0c-6.7,0 -12.1,-5.4 -12.1,-12.1l0,-265.2c0,-6.7 5.4,-12.1 12.1,-12.1l205.5,0c6.7,0 12.1,5.4 12.1,12.1l0,265.2c0,6.7 -5.4,12.1 -12.1,12.1z" class="st16"/>
   <path id="svg_85" d="m705.633313,554.6l-205.5,0c-6.7,0 -12.1,-5.4 -12.1,-12.1l0,-265.1c0,-6.7 5.4,-12.1 12.1,-12.1l205.5,0c6.7,0 12.1,5.4 12.1,12.1l0,265.2c0,6.6 -5.4,12 -12.1,12z" class="st8"/>
   <rect id="svg_86" height="48.2" width="10.1" class="st16" y="512.4" x="488.033313"/>
   <g id="svg_87">
    <path id="svg_88" d="m772.533313,340.4l72.8,255.5c1.8,6.4 8.5,10.1 14.9,8.3l108.2,-30.8c6.4,-1.8 10.1,-8.5 8.3,-14.9l-72.8,-255.5c-1.8,-6.4 -8.5,-10.1 -14.9,-8.3l-108.2,30.8c-6.4,1.8 -10.2,8.5 -8.3,14.9z" class="st10"/>
    <path id="svg_89" d="m904.133313,303.8l26.8,94l-131.4,37.4l-26.8,-94c-1.8,-6.4 2.5,-14.2 8.9,-16l108.2,-30.8c6.5,-1.8 12.5,3 14.3,9.4z" class="st8"/>
    <rect id="svg_90" height="13.9" width="144.1" class="st8" transform="matrix(-0.274,-0.9617,0.9617,-0.274,721.0437,1192.7955) " y="329.576048" x="546.994024"/>
    <rect id="svg_91" height="21.1" width="44.2" class="st8" transform="matrix(-0.274,-0.9617,0.9617,-0.274,744.0004,1287.175) " y="364.476048" x="643.994024"/>
    <rect id="svg_92" height="21.1" width="83.8" class="st8" transform="matrix(-0.274,-0.9617,0.9617,-0.274,790.1288,1167.911) " y="287.476048" x="602.294024"/>
    <rect id="svg_93" height="13.9" width="144.1" class="st8" transform="matrix(-0.274,-0.9617,0.9617,-0.274,680.6592,1177.1758) " y="336.976048" x="520.894024"/>
    <rect id="svg_94" height="13.9" width="76.7" class="st10" transform="matrix(-0.274,-0.9617,0.9617,-0.274,763.2073,963.7495) " y="199.176048" x="515.294024"/>
    <path id="svg_95" d="m903.933313,303l72.8,255.4c1.8,6.4 -2,12.8 -8.4,14.6l-7.7,2.2l-79.3,-278.4l7.7,-2.2c6.4,-1.7 13,2 14.9,8.4z" class="st15"/>
    <rect id="svg_96" height="44.6" width="76.7" class="st10" transform="matrix(-0.274,-0.9617,0.9617,-0.274,847.1539,996.218) " y="168.276048" x="569.594024"/>
   </g>
   <path id="svg_97" d="m705.233313,546.6l-217.2,0l0,-289.3l217.9,0c6.3,0 11.4,5.1 11.4,11.4l0,265.7c0.1,6.7 -5.4,12.2 -12.1,12.2z" class="st16"/>
   <g id="svg_98">
    <ellipse id="svg_99" ry="71.1" rx="71.2" cy="385.3" cx="602.833313" class="st21"/>
    <ellipse id="svg_100" ry="71.1" rx="38.1" cy="385.3" cx="602.833313" class="st21"/>
    <line id="svg_101" y2="456.4" x2="602.833313" y1="314.2" x1="602.833313" class="st21"/>
    <line id="svg_102" y2="347.7" x2="663.133313" y1="347.7" x1="542.433313" class="st21"/>
    <line id="svg_103" y2="387.9" x2="673.233313" y1="387.9" x1="532.333313" class="st21"/>
    <line id="svg_104" y2="426" x2="659.133313" y1="426" x1="544.433313" class="st21"/>
   </g>
   <rect id="svg_105" height="26.6" width="142.4" class="st15" y="480.2" x="531.533313"/>
  </g>
  <path id="svg_140" d="m1261.333344,814.766687l-11.8,-11.8l11.8,-11.8c1.2,-1.2 1.2,-3.2 0,-4.5c-1.2,-1.2 -3.2,-1.2 -4.5,0l-11.8,11.8l-11.8,-11.8c-1.2,-1.2 -3.2,-1.2 -4.5,0c-1.2,1.2 -1.2,3.2 0,4.5l11.8,11.8l-11.8,11.8c-1.2,1.2 -1.2,3.2 0,4.5c1.2,1.2 3.2,1.2 4.5,0l11.8,-11.8l11.8,11.8c1.2,1.2 3.2,1.2 4.5,0c1.3,-1.3 1.3,-3.3 0,-4.5z" class="st9"/>
  <path id="svg_141" d="m999.866656,1117.1l-11.8,-11.8l11.8,-11.8c1.2,-1.2 1.2,-3.2 0,-4.5c-1.2,-1.2 -3.2,-1.2 -4.5,0l-11.8,11.8l-11.8,-11.8c-1.2,-1.2 -3.2,-1.2 -4.5,0s-1.2,3.2 0,4.5l11.8,11.8l-11.8,11.8c-1.2,1.2 -1.2,3.2 0,4.5c1.2,1.2 3.2,1.2 4.5,0l11.8,-11.8l11.8,11.8c1.2,1.2 3.2,1.2 4.5,0c1.2,-1.3 1.2,-3.3 0,-4.5z" class="st9"/>
  <path id="svg_142" d="m880.80001,889.866683l-11.8,-11.8l11.8,-11.8c1.2,-1.2 1.2,-3.2 0,-4.5c-1.2,-1.2 -3.2,-1.2 -4.5,0l-11.7,11.9l-11.8,-11.8c-1.2,-1.2 -3.2,-1.2 -4.5,0c-1.2,1.2 -1.2,3.2 0,4.5l11.8,11.8l-11.8,11.8c-1.2,1.2 -1.2,3.2 0,4.5c1.2,1.2 3.2,1.2 4.5,0l11.8,-11.8l11.8,11.8c1.2,1.2 3.2,1.2 4.5,0c1.1,-1.3 1.1,-3.3 -0.1,-4.6z" class="st9"/>
  <g id="svg_143">
   <g id="svg_144" class="st3">
    <path id="svg_145" d="m1554.5,952.566687c0.1,-14 -11.7,-25.5 -27.2,-25.6l-0.5,50.7c15.5,0.2 27.6,-11.1 27.7,-25.1z"/>
    <path id="svg_146" d="m1813.3,1670.166687l15.1,-9.2l-200.4,-330l6.8,-4.1c5.2,-3.2 6.9,-10 3.7,-15.3l-39.4,-64.9c-3.2,-5.2 -10,-6.9 -15.3,-3.7l-6.8,4.1l0,0l-23.2,14.1l-76.6,-126.2l-13,-22.8l-20.9,-44c0,0 -2.8,-48 -5.8,-91.2l68.1,0.6l0,0l21.2,0.2l0.5,-50.8l-93.5,-0.9c-0.6,-6.7 -1.1,-11.8 -1.5,-14.6c-2.9,-19.4 -25.4,-29.4 -54.9,-44c-33.1,-16.5 -56.8,-30.5 -80.3,-30.5c-34,-0.1 -139.4,33.4 -153.1,37.4c-27.1,7.9 -18.8,40.5 7.3,49.1l-0.8,0l-37,15.5l0,0l-22,9.2l0,0l0,0l58.5,25.9l0.2,-16.9l0,0l0,0l0,0l0,0l0,0l-0.2,17.1l10.8,0.1c6.6,8.4 18.4,11.4 28.4,6.6l0.8,-0.4c-7.5,11.4 -6.1,26.5 3.5,36.2l2.7,2.7c8.9,9.1 23.2,10.3 33.6,2.8c-7,11.3 -5.4,25.9 3.9,35.3c8.6,8.8 22,10.9 32.9,5.2l6,-3.1c0,0 -12.3,46.8 27.4,82.3c36.7,32.7 59.1,49.8 62.3,52.2l81.4,134l-27.3,16.6c-5.2,3.2 -6.9,10 -3.7,15.3l39.4,64.9c3.2,5.2 10,6.9 15.3,3.7l4,-2.4l9.6,15.8l0,0l190.8,314.2l17,-10.3l0,0l24.6,-14.9l0,0l10.9,-6.6l14.5,-8.8l0,0l24.6,-14.9l0,0l41.9,-25.5l0,0l8,-5.1l0,0zm-662.9,-729.9l0,0l0,0l0,0l0,0z"/>
   </g>
   <path id="svg_147" d="m1386.4,893.066687c0,0 -63.5,-49.4 -118.2,-33c-54.6,16.4 -83,25.5 -83,25.5l-0.3,32.6l0,0c-11.8,5.4 -16.9,19.4 -11.4,31.2l0.3,0.7c5.5,11.8 19.5,16.8 31.3,11.2l0.8,-0.4l0,0c-7.5,11.4 -6.1,26.5 3.5,36.2l2.7,2.7c8.9,9.1 23.2,10.3 33.6,2.8l0,0l0,0c-7,11.3 -5.4,25.9 3.9,35.3l0,0c8.6,8.8 22,10.9 32.9,5.2l6,-3.1l101.9,-29.3l-4,-117.6z" class="st26"/>
   <path id="svg_148" d="m1480.1,1092.566687l-20.9,-44c0,0 -8.1,-137.2 -11,-156.7s-25.4,-29.4 -54.9,-44c-33.1,-16.5 -56.8,-30.5 -80.3,-30.5c-34,-0.1 -139.4,33.4 -153.1,37.4c-32.3,9.4 -14.4,53.8 24.1,51c33.2,-2.4 124.7,-29.4 124.7,-29.4l59.3,29c0,0 16.8,74.9 -7.1,87.2s-28.9,7.2 -28.9,7.2l-43.6,40.3c0,0 -12.3,46.8 27.4,82.3c39.7,35.4 62.8,52.6 62.8,52.6l114.7,-59.2l-13.2,-23.2z" class="st27"/>
   <g id="svg_149">
    <rect id="svg_150" height="324.5" width="50.8" class="st8" transform="matrix(-0.4198,-0.9076,0.9076,-0.4198,1138.6835,1977.1202) " y="423.447951" x="898.953551"/>
    <path id="svg_151" d="m1348.6,861.566687l0,0c2.7,5.7 0.2,12.5 -5.6,15.2l-111.9,51.7c-5.7,2.7 -12.5,0.2 -15.2,-5.6l0,0c-2.7,-5.7 -0.2,-12.5 5.6,-15.2l111.9,-51.7c5.8,-2.6 12.6,-0.1 15.2,5.6z" class="st28"/>
    <rect id="svg_152" height="10.9" width="50.8" class="st28" transform="matrix(-0.4198,-0.9076,0.9076,-0.4198,1371.7651,2008.777) " y="521.647951" x="1025.553551"/>
    <rect id="svg_153" height="10.9" width="51" class="st28" transform="matrix(-0.4198,-0.9076,0.9076,-0.4198,908.7662,1945.8975) " y="638.147951" x="773.953551"/>
    <path id="svg_154" d="m1087.5,975.866687l4.6,9.9l-9.7,4.5c-1.3,0.6 -2.7,0.5 -4,-0.1l-1.1,-0.6c-1.7,-0.9 -2.5,-2.8 -2.2,-4.6l0.2,-1.3c0.3,-1.4 1.2,-2.6 2.5,-3.2l9.7,-4.6z" class="st28"/>
    <path id="svg_155" d="m1124.3,937.166687l21.4,46.3l-11.7,5.4c-2.7,1.2 -5.8,0.1 -7.1,-2.6l-16.9,-36.6c-1.2,-2.7 -0.1,-5.8 2.6,-7.1l11.7,-5.4z" class="st29"/>
    <rect id="svg_156" height="13" width="18.8" class="st29" transform="matrix(-0.4198,-0.9076,0.9076,-0.4198,795.8539,1929.7806) " y="665.147951" x="728.353551"/>
    <path id="svg_157" d="m1443.9,804.266687l10.2,22c3.1,6.7 0.2,14.6 -6.5,17.7l-7.6,3.5l-21.3,-46.1l7.6,-3.5c6.6,-3.1 14.5,-0.2 17.6,6.4z" class="st29"/>
    <polygon id="svg_158" points="1104.699951171875,984.36669921875 1126.9000244140625,986.2666625976562 1110,949.5667114257812 1097.4000244140625,967.36669921875 " class="st28"/>
   </g>
   <path id="svg_159" d="m1349.6,1097.366687l-113.8,-116c-11.8,-12 -11.6,-31.4 0.4,-43.2l0,0c12,-11.8 31.4,-11.6 43.2,0.4l113.8,116l-43.6,42.8z" class="st27"/>
   <rect id="svg_160" height="641.9" width="129" class="st27" transform="matrix(0.8547,-0.5191,0.5191,0.8547,-374.7767,954.8538) " y="1096.828074" x="1384.083312"/>
   <g id="svg_161">
    <rect id="svg_162" height="484.2" width="183.4" class="st30" transform="matrix(0.8547,-0.5191,0.5191,0.8547,-403.8263,985.8684) " y="1243.028074" x="1397.783312"/>
    <path id="svg_163" d="m1650.6,1307.166687l-167.6,101.8c-5.2,3.2 -12.1,1.5 -15.3,-3.7l-39.4,-64.9c-3.2,-5.2 -1.5,-12.1 3.7,-15.3l167.6,-101.8c5.2,-3.2 12.1,-1.5 15.3,3.7l39.4,64.9c3.2,5.3 1.5,12.1 -3.7,15.3z" class="st31"/>
    <rect id="svg_164" height="18.5" width="183.4" class="st32" transform="matrix(0.8547,-0.5191,0.5191,0.8547,-354.2117,932.8163) " y="1360.728074" x="1327.783312"/>
    <rect id="svg_165" height="386.1" width="28.8" class="st32" transform="matrix(0.8547,-0.5191,0.5191,0.8547,-444.5084,984.0318) " y="1363.828074" x="1451.483312"/>
    <rect id="svg_166" height="386.1" width="28.8" class="st32" transform="matrix(0.8547,-0.5191,0.5191,0.8547,-421.4618,1005.5898) " y="1333.428074" x="1501.483312"/>
    <rect id="svg_167" height="386.1" width="28.8" class="st32" transform="matrix(0.8547,-0.5191,0.5191,0.8547,-398.4152,1027.1477) " y="1303.028074" x="1551.483312"/>
   </g>
  </g>
  <path id="svg_185" d="m541.333313,1084.766686l-11.8,-11.8l11.8,-11.8c1.2,-1.2 1.2,-3.2 0,-4.5c-1.2,-1.2 -3.2,-1.2 -4.5,0l-11.8,11.8l-11.8,-11.8c-1.2,-1.2 -3.2,-1.2 -4.5,0c-1.2,1.2 -1.2,3.2 0,4.5l11.8,11.8l-11.8,11.8c-1.2,1.2 -1.2,3.2 0,4.5c1.2,1.2 3.2,1.2 4.5,0l11.8,-11.8l11.8,11.8c1.2,1.2 3.2,1.2 4.5,0c1.3,-1.3 1.3,-3.3 0,-4.5z" class="st9"/>
  <path id="svg_186" d="m1693.199969,1290.433328l-11.8,-11.8l11.8,-11.8c1.2,-1.2 1.2,-3.2 0,-4.5c-1.2,-1.2 -3.2,-1.2 -4.5,0l-11.8,11.8l-11.8,-11.8c-1.2,-1.2 -3.2,-1.2 -4.5,0s-1.2,3.2 0,4.5l11.8,11.8l-11.8,11.8c-1.2,1.2 -1.2,3.2 0,4.5c1.2,1.2 3.2,1.2 4.5,0l11.8,-11.8l11.8,11.8c1.2,1.2 3.2,1.2 4.5,0c1.2,-1.3 1.2,-3.3 0,-4.5z" class="st9"/>
  <path id="svg_187" d="m424.666649,934.766686l-11.8,-11.8l11.8,-11.8c1.2,-1.2 1.2,-3.2 0,-4.5c-1.2,-1.2 -3.2,-1.2 -4.5,0l-11.8,11.8l-11.8,-11.8c-1.2,-1.2 -3.2,-1.2 -4.5,0c-1.2,1.2 -1.2,3.2 0,4.5l11.8,11.8l-11.8,11.8c-1.2,1.2 -1.2,3.2 0,4.5c1.2,1.2 3.2,1.2 4.5,0l11.8,-11.8l11.8,11.8c1.2,1.2 3.2,1.2 4.5,0c1.3,-1.3 1.3,-3.3 0,-4.5z" class="st9"/>
  <path id="svg_188" d="m947.466674,956.533347l-11.8,-11.8l11.8,-11.8c1.2,-1.2 1.2,-3.2 0,-4.5c-1.2,-1.2 -3.2,-1.2 -4.5,0l-11.7,11.9l-11.8,-11.8c-1.2,-1.2 -3.2,-1.2 -4.5,0c-1.2,1.2 -1.2,3.2 0,4.5l11.8,11.8l-11.8,11.8c-1.2,1.2 -1.2,3.2 0,4.5c1.2,1.2 3.2,1.2 4.5,0l11.8,-11.8l11.8,11.8c1.2,1.2 3.2,1.2 4.5,0c1.1,-1.3 1.1,-3.3 -0.1,-4.6z" class="st9"/>
 </g>
</svg>